<svg id="레이어_1" data-name="레이어 1" xmlns="http://www.w3.org/2000/svg" viewBox="0 0 96.38 96.03"><defs><style>.cls-1{fill:none;}.cls-2{fill:#00418c;}</style></defs><path class="cls-1" d="M996.81,395.85l-16.44,12-.18.11a8.87,8.87,0,0,1-8.58,6.71H952.82a2.54,2.54,0,0,1,0-5.07h18.79a3.8,3.8,0,0,0,0-7.59H952.82c-.58,0-15.61.61-22.78,14.41l10.45,10.44a2.63,2.63,0,0,1,.7-.11h24.09c10.17,0,18.43-9.25,18.51-9.35a2.39,2.39,0,0,1,.23-.22l17.36-15.3.11-.1a3.79,3.79,0,1,0-4.68-6Z" transform="translate(-911.63 -352.23)"/><rect class="cls-1" x="924.93" y="417.97" width="9.64" height="24.34" transform="translate(-943.47 431.18) rotate(-45)"/><path class="cls-2" d="M1006.13,393.37a8.87,8.87,0,0,0-12.38-1.56l-14.1,10.34a8.88,8.88,0,0,0-8-5.16H952.76c-.75,0-17.63.6-26.45,15.75a2.52,2.52,0,0,0-3.54,0l-10.4,10.39a2.56,2.56,0,0,0-.74,1.79,2.53,2.53,0,0,0,.74,1.79l20.79,20.79a2.53,2.53,0,0,0,3.58,0l10.39-10.39a2.51,2.51,0,0,0,0-3.58l-1.69-1.69h19.84c11.85,0,21-9.64,22.2-10.94l17.2-15.16A8.88,8.88,0,0,0,1006.13,393.37ZM935,442.15l-17.21-17.21,6.82-6.81,17.2,17.21Zm66.54-40.33-.11.1L984,417.22a2.39,2.39,0,0,0-.23.22c-.08.1-8.34,9.35-18.51,9.35H941.19a2.63,2.63,0,0,0-.7.11L930,416.46c7.17-13.8,22.2-14.39,22.78-14.41h18.79a3.8,3.8,0,0,1,0,7.59H952.82a2.54,2.54,0,0,0,0,5.07h18.79a8.87,8.87,0,0,0,8.58-6.71l.18-.11,16.44-12a3.79,3.79,0,1,1,4.68,6Z" transform="translate(-911.63 -352.23)"/><path class="cls-2" d="M933.89,398.69a39.21,39.21,0,0,1,10.81-4.75V381.68h6.7l-12.11-12.11-12.11,12.11h6.71Z" transform="translate(-911.63 -352.23)"/><path class="cls-2" d="M957.13,392.61h14.64v-24h9.08l-16.4-16.39-16.39,16.39h9.07Z" transform="translate(-911.63 -352.23)"/><path class="cls-2" d="M988.11,390.53l3-2.19a13,13,0,0,1,5.31-2.43v-9.05h5.14l-9.29-9.29L983,376.86h5.14Z" transform="translate(-911.63 -352.23)"/></svg>