<svg id="레이어_1" data-name="레이어 1" xmlns="http://www.w3.org/2000/svg" viewBox="0 0 95.97 96.38"><defs><style>.cls-1{fill:none;}.cls-2{fill:#00418c;}</style></defs><path class="cls-1" d="M996.86,368.83H958.42a6.52,6.52,0,0,0-6.51,6.51v24.59a6.51,6.51,0,0,0,6.51,6.5h14.5a2.51,2.51,0,0,1,2.19,1.27l2.53,4.37,2.52-4.37a2.52,2.52,0,0,1,2.19-1.27h14.51a6.51,6.51,0,0,0,6.5-6.5V375.34A6.51,6.51,0,0,0,996.86,368.83Zm-8.18,27.63H966.59a2.53,2.53,0,0,1,0-5.06h22.09a2.53,2.53,0,1,1,0,5.06Zm0-12.89H966.59a2.53,2.53,0,0,1,0-5.06h22.09a2.53,2.53,0,1,1,0,5.06Z" transform="translate(-912.45 -352.06)"/><path class="cls-2" d="M962,352.06H956.6a34.28,34.28,0,0,0-34.24,34.24V394l-9.55,15.91a2.53,2.53,0,0,0,2.17,3.83h7.38v8.07a14.91,14.91,0,0,0,14.9,14.91h6.11v9.15a2.53,2.53,0,1,0,5.06,0V434.22a2.53,2.53,0,0,0-2.53-2.53h-8.64a9.85,9.85,0,0,1-9.84-9.85v-10.6a2.53,2.53,0,0,0-2.53-2.53h-5.44L927.06,396a2.63,2.63,0,0,0,.36-1.31V386.3a29.21,29.21,0,0,1,29.18-29.18H962a29.11,29.11,0,0,1,18.53,6.65h7.25A34.24,34.24,0,0,0,962,352.06Z" transform="translate(-912.45 -352.06)"/><path class="cls-2" d="M982.79,423a2.51,2.51,0,0,0-.73,1.78V445.9a2.53,2.53,0,1,0,5.06,0V425.78A34.09,34.09,0,0,0,995,411.49h-5.28A29.16,29.16,0,0,1,982.79,423Z" transform="translate(-912.45 -352.06)"/><path class="cls-2" d="M988.68,378.51H966.59a2.53,2.53,0,0,0,0,5.06h22.09a2.53,2.53,0,1,0,0-5.06Z" transform="translate(-912.45 -352.06)"/><path class="cls-2" d="M988.68,391.4H966.59a2.53,2.53,0,0,0,0,5.06h22.09a2.53,2.53,0,1,0,0-5.06Z" transform="translate(-912.45 -352.06)"/><path class="cls-2" d="M996.86,363.77H958.42a11.58,11.58,0,0,0-11.57,11.57v24.59a11.57,11.57,0,0,0,11.57,11.56h13l4,6.91a2.54,2.54,0,0,0,4.39,0l4-6.91h13.05a11.57,11.57,0,0,0,11.56-11.56V375.34A11.57,11.57,0,0,0,996.86,363.77Zm6.5,36.16a6.51,6.51,0,0,1-6.5,6.5H982.35a2.52,2.52,0,0,0-2.19,1.27l-2.52,4.37-2.53-4.37a2.51,2.51,0,0,0-2.19-1.27h-14.5a6.51,6.51,0,0,1-6.51-6.5V375.34a6.52,6.52,0,0,1,6.51-6.51h38.44a6.51,6.51,0,0,1,6.5,6.51Z" transform="translate(-912.45 -352.06)"/></svg>