<svg id="레이어_1" data-name="레이어 1" xmlns="http://www.w3.org/2000/svg" viewBox="0 0 142.56 143.66"><defs><style>.cls-1{fill:none;}.cls-2{fill:#00418c;}.cls-3{fill:#595656;}</style></defs><path class="cls-1" d="M995.13,393.82a3.63,3.63,0,0,1,.35,1.55v9.26h4.45a3.77,3.77,0,1,1,0,7.54h-4.45v16.12a3.78,3.78,0,1,1-7.55,0V405.17a36.94,36.94,0,0,1-5.51,4.86,3.75,3.75,0,0,1,1.17,2.71,14.76,14.76,0,0,1-14.75,14.75c-7.47,0-13.15-4.3-14.46-10.55H934l-3.37,3.37a29.21,29.21,0,0,0,29.1,27.37h28.58a3.81,3.81,0,0,1,2.67,1.1l10.41,10.42v-9.39a3.76,3.76,0,0,1,2.6-3.58,29.13,29.13,0,0,0,20.12-27.76v-15a29.24,29.24,0,0,0-26.35-29.05v5.79A36.59,36.59,0,0,1,995.13,393.82Z" transform="translate(-889.1 -328.42)"/><polygon class="cls-1" points="60.44 49.58 54.34 33.37 48.23 49.58 60.44 49.58"/><path class="cls-1" d="M968.84,420a7.2,7.2,0,0,0,7.1-6.19,36.65,36.65,0,0,1-13.61,3.14C963.59,419.1,966.37,420,968.84,420Z" transform="translate(-889.1 -328.42)"/><path class="cls-1" d="M923.31,417a3.8,3.8,0,0,1,1.93-1.92l4.53-4.54a3.81,3.81,0,0,1,2.67-1.1H961a29.23,29.23,0,0,0,29.2-29.2v-15A29.24,29.24,0,0,0,961,336H925.84a29.24,29.24,0,0,0-29.2,29.21v15a29.14,29.14,0,0,0,20.12,27.75,3.78,3.78,0,0,1,2.6,3.59v9.38Zm1.74-27.75,14.85-39.45a3.77,3.77,0,0,1,7.06,0l14.85,39.45a3.77,3.77,0,0,1-2.2,4.86,3.9,3.9,0,0,1-1.33.24,3.78,3.78,0,0,1-3.53-2.44l-2.38-6.32H934.49l-2.38,6.32a3.77,3.77,0,1,1-7.06-2.66Z" transform="translate(-889.1 -328.42)"/><path class="cls-2" d="M968.84,427.49a14.76,14.76,0,0,0,14.75-14.75,3.75,3.75,0,0,0-1.17-2.71,37.46,37.46,0,0,1-6.48,3.73,7.2,7.2,0,0,1-7.1,6.19c-2.47,0-5.25-.85-6.51-3.05-.44,0-.87,0-1.31,0h-6.64C955.69,423.19,961.37,427.49,968.84,427.49Z" transform="translate(-889.1 -328.42)"/><path class="cls-2" d="M991.7,432.07a3.78,3.78,0,0,0,3.78-3.78V412.17h4.45a3.77,3.77,0,1,0,0-7.54h-4.45v-9.26a3.63,3.63,0,0,0-.35-1.55,36.76,36.76,0,0,1-7.2,11.35v23.12A3.77,3.77,0,0,0,991.7,432.07Z" transform="translate(-889.1 -328.42)"/><path class="cls-2" d="M927.25,394.06a3.77,3.77,0,0,0,4.86-2.2l2.38-6.32h17.88l2.38,6.32a3.78,3.78,0,0,0,3.53,2.44,3.9,3.9,0,0,0,1.33-.24,3.77,3.77,0,0,0,2.2-4.86L947,349.75a3.77,3.77,0,0,0-7.06,0L925.05,389.2A3.77,3.77,0,0,0,927.25,394.06Zm16.18-32.27,6.1,16.21h-12.2Z" transform="translate(-889.1 -328.42)"/><path class="cls-3" d="M923.31,417l1.93-1.92A3.8,3.8,0,0,0,923.31,417Z" transform="translate(-889.1 -328.42)"/><path class="cls-2" d="M997.76,366.83v7.57a29.24,29.24,0,0,1,26.35,29.05v15A29.13,29.13,0,0,1,1004,446.23a3.76,3.76,0,0,0-2.6,3.58v9.39L991,448.78a3.81,3.81,0,0,0-2.67-1.1H959.73a29.21,29.21,0,0,1-29.1-27.37L924,427a36.79,36.79,0,0,0,35.74,28.27h27L1002.5,471a3.79,3.79,0,0,0,2.67,1.11,3.86,3.86,0,0,0,1.44-.29,3.77,3.77,0,0,0,2.33-3.49V452.44a36.66,36.66,0,0,0,22.72-34v-15A36.78,36.78,0,0,0,997.76,366.83Z" transform="translate(-889.1 -328.42)"/><path class="cls-2" d="M934,416.94h27c.44,0,.87,0,1.31,0a36.65,36.65,0,0,0,13.61-3.14,37.46,37.46,0,0,0,6.48-3.73,36.73,36.73,0,0,0,15.34-29.84v-15A36.78,36.78,0,0,0,961,328.42H925.84a36.78,36.78,0,0,0-36.74,36.75v15a36.66,36.66,0,0,0,22.71,34V430a3.77,3.77,0,0,0,2.33,3.48,3.67,3.67,0,0,0,1.44.29,3.73,3.73,0,0,0,2.67-1.11L924,427l6.64-6.64Zm-17.24-9a29.14,29.14,0,0,1-20.12-27.75v-15A29.24,29.24,0,0,1,925.84,336H961a29.24,29.24,0,0,1,29.2,29.21v15a29.23,29.23,0,0,1-29.2,29.2H932.44a3.81,3.81,0,0,0-2.67,1.1L925.24,415,923.31,417l-3.95,4v-9.38A3.78,3.78,0,0,0,916.76,407.94Z" transform="translate(-889.1 -328.42)"/></svg>