<svg id="레이어_1" data-name="레이어 1" xmlns="http://www.w3.org/2000/svg" viewBox="0 0 83.33 96.38"><defs><style>.cls-1{fill:none;}.cls-2{fill:#00418c;}.cls-3{fill:#0af;}</style></defs><path class="cls-1" d="M981.87,431.84a27.37,27.37,0,1,1,3.58-3.58L997,439.79V374.11H982.52a2.53,2.53,0,0,1-2.53-2.53V357.12H923.77v86.25H993.4Z" transform="translate(-918.71 -352.06)"/><path class="cls-1" d="M964.42,388.54a22.28,22.28,0,1,0,22.28,22.27A22.3,22.3,0,0,0,964.42,388.54Zm-9.33,11.62H971a1.38,1.38,0,0,1,0,2.76H955.09a1.38,1.38,0,0,1,0-2.76ZM971,420.1H955.09a1.38,1.38,0,1,1,0-2.76H971a1.38,1.38,0,0,1,0,2.76Zm6.75-8.59H950.18a1.38,1.38,0,0,1,0-2.76h27.61a1.38,1.38,0,1,1,0,2.76Z" transform="translate(-918.71 -352.06)"/><path class="cls-2" d="M991.76,410.81a27.37,27.37,0,1,0-9.89,21l11.53,11.53H997v-3.58l-11.53-11.53A27.2,27.2,0,0,0,991.76,410.81Zm-27.34,22.28a22.28,22.28,0,1,1,22.28-22.28A22.31,22.31,0,0,1,964.42,433.09Z" transform="translate(-918.71 -352.06)"/><path class="cls-3" d="M1002,446a2.22,2.22,0,0,1,0,.45A2.3,2.3,0,0,0,1002,446Z" transform="translate(-918.71 -352.06)"/><path class="cls-3" d="M1000,448.39a2.73,2.73,0,0,1-.5.05A2.73,2.73,0,0,0,1000,448.39Z" transform="translate(-918.71 -352.06)"/><path class="cls-3" d="M1001.92,446.63a1.68,1.68,0,0,1-.07.24A2.17,2.17,0,0,0,1001.92,446.63Z" transform="translate(-918.71 -352.06)"/><path class="cls-3" d="M1000.92,448l-.2.11Z" transform="translate(-918.71 -352.06)"/><path class="cls-3" d="M1000.48,448.24a1.29,1.29,0,0,1-.26.08A1.53,1.53,0,0,0,1000.48,448.24Z" transform="translate(-918.71 -352.06)"/><path class="cls-3" d="M1001.62,447.31a1.51,1.51,0,0,0,.09-.18Z" transform="translate(-918.71 -352.06)"/><path class="cls-2" d="M1001.85,446.87a1.68,1.68,0,0,0,.07-.24.88.88,0,0,0,.07-.23,2.22,2.22,0,0,0,0-.45V371.53a2.3,2.3,0,0,0,0-.45h0a1.87,1.87,0,0,0-.13-.42.61.61,0,0,0-.05-.12,2.1,2.1,0,0,0-.15-.3.61.61,0,0,1-.07-.1,2.45,2.45,0,0,0-.29-.35l-17-17a2.45,2.45,0,0,0-.35-.29l-.1-.06a2.19,2.19,0,0,0-.3-.16l-.11-.05a2.66,2.66,0,0,0-.88-.18H921.24a2.53,2.53,0,0,0-2.53,2.53V445.9a2.54,2.54,0,0,0,2.53,2.54h78.27a2.73,2.73,0,0,0,.5-.05l.21-.07a1.29,1.29,0,0,0,.26-.08,1.79,1.79,0,0,0,.24-.12l.2-.11a2.74,2.74,0,0,0,.7-.7l.09-.18A2.15,2.15,0,0,0,1001.85,446.87Zm-78.08-89.75H980v14.46a2.53,2.53,0,0,0,2.53,2.53H997v69.26H923.77Z" transform="translate(-918.71 -352.06)"/><path class="cls-2" d="M955.09,402.92H971a1.38,1.38,0,0,0,0-2.76H955.09a1.38,1.38,0,0,0,0,2.76Z" transform="translate(-918.71 -352.06)"/><path class="cls-2" d="M977.79,408.75H950.18a1.38,1.38,0,0,0,0,2.76h27.61a1.38,1.38,0,1,0,0-2.76Z" transform="translate(-918.71 -352.06)"/><path class="cls-2" d="M971,417.34H955.09a1.38,1.38,0,1,0,0,2.76H971a1.38,1.38,0,0,0,0-2.76Z" transform="translate(-918.71 -352.06)"/></svg>