<svg id="레이어_1" data-name="레이어 1" xmlns="http://www.w3.org/2000/svg" viewBox="0 0 103.27 116.89"><defs><style>.cls-1{fill:none;stroke:#fff;stroke-miterlimit:10;stroke-width:3px;}.cls-2{fill:#fff;}</style></defs><circle class="cls-1" cx="61.87" cy="87.47" r="12.5"/><path class="cls-2" d="M1009.91,457.8a1.76,1.76,0,0,1-1.75-1.75v-44.9H984.6v44.9a1.75,1.75,0,0,1-1.75,1.75h0a1.76,1.76,0,0,1-1.75-1.75V409.4a1.75,1.75,0,0,1,1.75-1.75h27.06a1.75,1.75,0,0,1,1.75,1.75v46.65A1.75,1.75,0,0,1,1009.91,457.8Z" transform="translate(-908.39 -341.14)"/><path class="cls-2" d="M982.84,411.15a1.78,1.78,0,0,1-1-.31,1.76,1.76,0,0,1-.43-2.44L995,389.1a1.81,1.81,0,0,1,2.86,0l13.54,19.3a1.75,1.75,0,0,1-2.87,2l-12.1-17.26-12.1,17.26A1.76,1.76,0,0,1,982.84,411.15Z" transform="translate(-908.39 -341.14)"/><polygon class="cls-2" points="80.54 59.58 95.43 59.58 87.99 48.97 80.54 59.58"/><path class="cls-2" d="M996.38,458a1.75,1.75,0,0,1-1.75-1.75V411a1.75,1.75,0,1,1,3.5,0v45.27A1.76,1.76,0,0,1,996.38,458Z" transform="translate(-908.39 -341.14)"/><path class="cls-2" d="M930.94,365.44h-20.8a1.75,1.75,0,0,1-1.24-3l20.81-20.81a1.75,1.75,0,0,1,3,1.24v20.8A1.75,1.75,0,0,1,930.94,365.44Zm-16.57-3.5h14.82V347.11Z" transform="translate(-908.39 -341.14)"/><path class="cls-2" d="M982.76,452.19H910.14a1.75,1.75,0,0,1-1.75-1.75V363.69a1.76,1.76,0,0,1,.51-1.23l20.81-20.81a1.73,1.73,0,0,1,1.23-.51h70.27a1.75,1.75,0,0,1,1.75,1.75v43.57a1.75,1.75,0,1,1-3.5,0V344.64H931.67l-19.78,19.78v84.27h70.87a1.75,1.75,0,0,1,0,3.5Z" transform="translate(-908.39 -341.14)"/><path class="cls-2" d="M981.93,378.86h-52a1.75,1.75,0,0,1,0-3.5h52a1.75,1.75,0,0,1,0,3.5Z" transform="translate(-908.39 -341.14)"/><path class="cls-2" d="M981.93,392.86h-52a1.75,1.75,0,0,1,0-3.5h52a1.75,1.75,0,0,1,0,3.5Z" transform="translate(-908.39 -341.14)"/><path class="cls-2" d="M971.6,406.86H929.93a1.75,1.75,0,0,1,0-3.5H971.6a1.75,1.75,0,0,1,0,3.5Z" transform="translate(-908.39 -341.14)"/><path class="cls-2" d="M949.6,420.86H929.93a1.75,1.75,0,0,1,0-3.5H949.6a1.75,1.75,0,0,1,0,3.5Z" transform="translate(-908.39 -341.14)"/><path class="cls-2" d="M949.6,434.86H929.93a1.75,1.75,0,0,1,0-3.5H949.6a1.75,1.75,0,0,1,0,3.5Z" transform="translate(-908.39 -341.14)"/></svg>