<svg id="레이어_1" data-name="레이어 1" xmlns="http://www.w3.org/2000/svg" viewBox="0 0 108.88 102.45"><defs><style>.cls-1{fill:none;}.cls-2{fill:#fff;}.cls-3{fill:#3d3d3d;}</style></defs><path class="cls-1" d="M1003.49,351v4.51h-10.3V351H927.56v4.51h-10.3V351h-9.32v98.45h9.32V445h10.3v4.51h65.63V445h10.3v4.51h9.33V351Zm-75.93,84.29h-10.3V425h10.3Zm0-19.94h-10.3v-10.3h10.3Zm0-19.95h-10.3v-10.3h10.3Zm0-19.95h-10.3V365.18h10.3Zm75.93,59.84h-10.3V425h10.3Zm0-19.94h-10.3v-10.3h10.3Zm0-19.95h-10.3v-10.3h10.3Zm0-19.95h-10.3V365.18h10.3Z" transform="translate(-905.94 -349.02)"/><path class="cls-2" d="M1012.82,451.47h-9.33a2,2,0,0,1-2-2V447h-6.3v2.51a2,2,0,0,1-2,2H927.56a2,2,0,0,1-2-2V447h-6.3v2.51a2,2,0,0,1-2,2h-9.32a2,2,0,0,1-2-2V351a2,2,0,0,1,2-2h9.32a2,2,0,0,1,2,2v2.51h6.3V351a2,2,0,0,1,2-2h65.63a2,2,0,0,1,2,2v2.51h6.3V351a2,2,0,0,1,2-2h9.33a2,2,0,0,1,2,2v98.45A2,2,0,0,1,1012.82,451.47Zm-7.33-4h5.33V353h-5.33v2.51a2,2,0,0,1-2,2h-10.3a2,2,0,0,1-2-2V353H929.56v2.51a2,2,0,0,1-2,2h-10.3a2,2,0,0,1-2-2V353h-5.32v94.45h5.32V445a2,2,0,0,1,2-2h10.3a2,2,0,0,1,2,2v2.51h61.63V445a2,2,0,0,1,2-2h10.3a2,2,0,0,1,2,2Zm-2-10.16h-10.3a2,2,0,0,1-2-2V425a2,2,0,0,1,2-2h10.3a2,2,0,0,1,2,2v10.29A2,2,0,0,1,1003.49,437.31Zm-8.3-4h6.3V427h-6.3Zm-67.63,4h-10.3a2,2,0,0,1-2-2V425a2,2,0,0,1,2-2h10.3a2,2,0,0,1,2,2v10.29A2,2,0,0,1,927.56,437.31Zm-8.3-4h6.3V427h-6.3Zm84.23-15.94h-10.3a2,2,0,0,1-2-2v-10.3a2,2,0,0,1,2-2h10.3a2,2,0,0,1,2,2v10.3A2,2,0,0,1,1003.49,417.37Zm-8.3-4h6.3v-6.3h-6.3Zm-67.63,4h-10.3a2,2,0,0,1-2-2v-10.3a2,2,0,0,1,2-2h10.3a2,2,0,0,1,2,2v10.3A2,2,0,0,1,927.56,417.37Zm-8.3-4h6.3v-6.3h-6.3Zm84.23-15.95h-10.3a2,2,0,0,1-2-2v-10.3a2,2,0,0,1,2-2h10.3a2,2,0,0,1,2,2v10.3A2,2,0,0,1,1003.49,397.42Zm-8.3-4h6.3v-6.3h-6.3Zm-67.63,4h-10.3a2,2,0,0,1-2-2v-10.3a2,2,0,0,1,2-2h10.3a2,2,0,0,1,2,2v10.3A2,2,0,0,1,927.56,397.42Zm-8.3-4h6.3v-6.3h-6.3Zm84.23-15.95h-10.3a2,2,0,0,1-2-2V365.18a2,2,0,0,1,2-2h10.3a2,2,0,0,1,2,2v10.29A2,2,0,0,1,1003.49,377.47Zm-8.3-4h6.3v-6.29h-6.3Zm-67.63,4h-10.3a2,2,0,0,1-2-2V365.18a2,2,0,0,1,2-2h10.3a2,2,0,0,1,2,2v10.29A2,2,0,0,1,927.56,377.47Zm-8.3-4h6.3v-6.29h-6.3Z" transform="translate(-905.94 -349.02)"/><rect class="cls-3" x="29.44" y="10.72" width="50" height="36.5"/><path class="cls-2" d="M985.38,397.25h-50a1,1,0,0,1-1-1v-36.5a1,1,0,0,1,1-1h50a1,1,0,0,1,1,1v36.5A1,1,0,0,1,985.38,397.25Zm-49-2h48v-34.5h-48Z" transform="translate(-905.94 -349.02)"/><rect class="cls-3" x="29.44" y="55.22" width="50" height="36.5"/><path class="cls-2" d="M985.38,441.75h-50a1,1,0,0,1-1-1v-36.5a1,1,0,0,1,1-1h50a1,1,0,0,1,1,1v36.5A1,1,0,0,1,985.38,441.75Zm-49-2h48v-34.5h-48Z" transform="translate(-905.94 -349.02)"/><path class="cls-3" d="M980.74,400.25a20.37,20.37,0,1,0-20.36,20.36A20.37,20.37,0,0,0,980.74,400.25Z" transform="translate(-905.94 -349.02)"/><path class="cls-2" d="M960.38,422.61a22.37,22.37,0,1,1,22.36-22.36A22.39,22.39,0,0,1,960.38,422.61Zm0-40.73a18.37,18.37,0,1,0,18.36,18.37A18.39,18.39,0,0,0,960.38,381.88Z" transform="translate(-905.94 -349.02)"/><polygon class="cls-3" points="49.13 42.22 64.72 51.22 49.13 60.22 49.13 42.22"/><path class="cls-2" d="M955.07,410.25a1,1,0,0,1-.5-.14,1,1,0,0,1-.5-.86v-18a1,1,0,0,1,.5-.87,1,1,0,0,1,1,0l15.58,9a1,1,0,0,1,0,1.73l-15.58,9A1,1,0,0,1,955.07,410.25Zm1-17.27v14.53l12.58-7.26Z" transform="translate(-905.94 -349.02)"/></svg>