<svg id="레이어_1" data-name="레이어 1" xmlns="http://www.w3.org/2000/svg" viewBox="0 0 108.88 96.93"><defs><style>.cls-1{fill:#3d3d3d;}.cls-2{fill:#fff;}</style></defs><polygon class="cls-1" points="65.41 18.99 65.41 2 48.42 2 48.42 2 2 2 2 78.1 65.41 78.1 65.41 18.99 65.41 18.99"/><path class="cls-2" d="M971.35,431.88H907.94a2,2,0,0,1-2-2v-76.1a2,2,0,0,1,2-2h63.41a2,2,0,0,1,2,2v76.09a2,2,0,0,1-2,2Zm-61.41-4h59.41V355.79H909.94Z" transform="translate(-905.94 -351.78)"/><polygon class="cls-1" points="73.83 27.4 73.83 10.42 56.84 10.42 56.84 10.41 10.42 10.41 10.42 86.51 73.83 86.51 73.83 27.4 73.83 27.4"/><path class="cls-2" d="M979.76,440.3H916.35a2,2,0,0,1-2-2V362.2a2,2,0,0,1,2-2h63.41a2,2,0,0,1,2,2v76.1a2,2,0,0,1-.58,1.41A2,2,0,0,1,979.76,440.3Zm-61.41-4h59.41V364.2H918.35Z" transform="translate(-905.94 -351.78)"/><polygon class="cls-1" points="65.25 18.83 18.83 18.83 18.83 94.93 82.24 94.93 82.24 35.82 65.25 18.83"/><path class="cls-2" d="M988.18,448.71H924.77a2,2,0,0,1-2-2v-76.1a2,2,0,0,1,2-2h46.42a2,2,0,0,1,1.41.59l17,17a2,2,0,0,1,.59,1.41v59.11A2,2,0,0,1,988.18,448.71Zm-61.41-4h59.41V388.43l-15.82-15.82H926.77Z" transform="translate(-905.94 -351.78)"/><polygon class="cls-1" points="65.25 35.82 82.24 35.82 65.25 18.83 65.25 35.82"/><path class="cls-2" d="M988.18,389.6h-17a2,2,0,0,1-2-2v-17a2,2,0,0,1,3.41-1.41l17,17a2,2,0,0,1-1.41,3.41Zm-15-4h10.16l-10.16-10.16Z" transform="translate(-905.94 -351.78)"/><polygon class="cls-1" points="106.88 14.46 98.92 2 90.96 14.46 90.96 94.93 106.88 94.93 106.88 14.46"/><path class="cls-2" d="M1012.82,448.71H996.9a2,2,0,0,1-2-2V366.25a2,2,0,0,1,.31-1.08l8-12.46a2,2,0,0,1,1.69-.93,2,2,0,0,1,1.68.93l8,12.46a2,2,0,0,1,.32,1.08v80.46A2,2,0,0,1,1012.82,448.71Zm-13.92-4h11.92V366.83l-6-9.33-6,9.33Z" transform="translate(-905.94 -351.78)"/><path class="cls-2" d="M1012.46,369h-15.2a2,2,0,0,1,0-4h15.2a2,2,0,0,1,0,4Z" transform="translate(-905.94 -351.78)"/><path class="cls-2" d="M1011.64,439.27H998.08a1,1,0,1,1,0-2h13.56a1,1,0,0,1,0,2Z" transform="translate(-905.94 -351.78)"/><path class="cls-2" d="M1004.86,437.83a1,1,0,0,1-1-1V368a1,1,0,0,1,2,0v68.83A1,1,0,0,1,1004.86,437.83Z" transform="translate(-905.94 -351.78)"/><path class="cls-2" d="M973.88,404.43h-35a2,2,0,0,1,0-4h35a2,2,0,0,1,0,4Z" transform="translate(-905.94 -351.78)"/><path class="cls-2" d="M973.88,416.93h-35a2,2,0,0,1,0-4h35a2,2,0,0,1,0,4Z" transform="translate(-905.94 -351.78)"/><path class="cls-2" d="M973.88,429.43h-35a2,2,0,0,1,0-4h35a2,2,0,0,1,0,4Z" transform="translate(-905.94 -351.78)"/></svg>