<svg id="레이어_1" data-name="레이어 1" xmlns="http://www.w3.org/2000/svg" viewBox="0 0 100.77 100.56"><defs><style>.cls-1{fill:#fff;}</style></defs><path class="cls-1" d="M995.83,450.53H924.92a1.75,1.75,0,1,1,0-3.5h70.91a1.75,1.75,0,1,1,0,3.5Z" transform="translate(-909.99 -349.96)"/><path class="cls-1" d="M1009,431.88H911.74a1.75,1.75,0,0,1-1.75-1.75V351.71a1.75,1.75,0,0,1,1.75-1.75H1009a1.75,1.75,0,0,1,1.75,1.75v78.42A1.75,1.75,0,0,1,1009,431.88Zm-95.52-3.5h93.77V353.46H913.49Z" transform="translate(-909.99 -349.96)"/><path class="cls-1" d="M1009,431.88H911.74a1.75,1.75,0,0,1-1.75-1.75V415.05a1.75,1.75,0,0,1,1.75-1.75H1009a1.75,1.75,0,0,1,1.75,1.75v15.08A1.75,1.75,0,0,1,1009,431.88Zm-95.52-3.5h93.77V416.8H913.49Z" transform="translate(-909.99 -349.96)"/><path class="cls-1" d="M944,449.46a1.75,1.75,0,0,1-1.75-1.75V431.92a1.75,1.75,0,0,1,3.5,0v15.79A1.75,1.75,0,0,1,944,449.46Z" transform="translate(-909.99 -349.96)"/><path class="cls-1" d="M976.79,449.46a1.75,1.75,0,0,1-1.75-1.75V431.92a1.75,1.75,0,0,1,3.5,0v15.79A1.75,1.75,0,0,1,976.79,449.46Z" transform="translate(-909.99 -349.96)"/><path class="cls-1" d="M960.41,406.36a22.92,22.92,0,1,1,22.92-22.92A22.94,22.94,0,0,1,960.41,406.36Zm0-42.59a19.67,19.67,0,1,0,19.67,19.67A19.69,19.69,0,0,0,960.41,363.77Z" transform="translate(-909.99 -349.96)"/><path class="cls-1" d="M954.11,395.09a1.61,1.61,0,0,1-.79-.21,1.63,1.63,0,0,1-.83-1.42v-20a1.63,1.63,0,0,1,.83-1.42,1.61,1.61,0,0,1,1.64,0l16.36,10a1.63,1.63,0,0,1,0,2.78l-16.36,10A1.61,1.61,0,0,1,954.11,395.09Zm1.63-18.77v14.24l11.62-7.12Z" transform="translate(-909.99 -349.96)"/></svg>