<svg id="레이어_1" data-name="레이어 1" xmlns="http://www.w3.org/2000/svg" viewBox="0 0 101.24 116.89"><defs><style>.cls-1{fill:#fff;}.cls-2{fill:none;}</style></defs><path class="cls-1" d="M-190.95,492.76A1.75,1.75,0,0,1-192.7,491V393.85a9.83,9.83,0,0,1,9.82-9.83h89.67a1.76,1.76,0,0,1,1.75,1.75v97.16a1.75,1.75,0,0,1-1.75,1.75h-89.67A6.33,6.33,0,0,0-189.2,491,1.75,1.75,0,0,1-190.95,492.76Zm8.07-105.24a6.33,6.33,0,0,0-6.32,6.33V483.5a9.73,9.73,0,0,1,6.32-2.32H-95V387.52Z" transform="translate(192.7 -384.02)"/><path class="cls-1" d="M-93.21,500.91h-89.67a9.83,9.83,0,0,1-9.82-9.83,9.85,9.85,0,0,1,9.82-9.9h89.67a1.76,1.76,0,0,1,1.75,1.75,1.77,1.77,0,0,1-1.7,1.77A6.29,6.29,0,0,0-99.27,491a6.32,6.32,0,0,0,6.11,6.39,1.75,1.75,0,0,1,1.7,1.75A1.77,1.77,0,0,1-93.21,500.91Zm-89.67-16.23A6.33,6.33,0,0,0-189.2,491a6.34,6.34,0,0,0,6.32,6.4h82.4a9.82,9.82,0,0,1-2.29-6.33,9.92,9.92,0,0,1,2.3-6.4Z" transform="translate(192.7 -384.02)"/><path class="cls-1" d="M-111.6,492.61h-66.08a1.75,1.75,0,0,1-1.75-1.75,1.75,1.75,0,0,1,1.75-1.75h66.08a1.75,1.75,0,0,1,1.75,1.75A1.75,1.75,0,0,1-111.6,492.61Z" transform="translate(192.7 -384.02)"/><path class="cls-1" d="M-178,478.38a1.76,1.76,0,0,1-1.75-1.75v-89.5a1.75,1.75,0,0,1,1.75-1.75,1.75,1.75,0,0,1,1.75,1.75v89.5A1.75,1.75,0,0,1-178,478.38Z" transform="translate(192.7 -384.02)"/><rect class="cls-2" x="28.19" y="15.6" width="58" height="19.5"/><path class="cls-1" d="M-106.52,420.88h-58a1.76,1.76,0,0,1-1.75-1.75v-19.5a1.75,1.75,0,0,1,1.75-1.75h58a1.75,1.75,0,0,1,1.75,1.75v19.5A1.75,1.75,0,0,1-106.52,420.88Zm-56.25-3.5h54.5v-16h-54.5Z" transform="translate(192.7 -384.02)"/><path class="cls-1" d="M-114.52,451.38h-42a1.76,1.76,0,0,1-1.75-1.75,1.75,1.75,0,0,1,1.75-1.75h42a1.75,1.75,0,0,1,1.75,1.75A1.75,1.75,0,0,1-114.52,451.38Z" transform="translate(192.7 -384.02)"/><path class="cls-1" d="M-109,461.38h-53a1.76,1.76,0,0,1-1.75-1.75,1.75,1.75,0,0,1,1.75-1.75h53a1.75,1.75,0,0,1,1.75,1.75A1.75,1.75,0,0,1-109,461.38Z" transform="translate(192.7 -384.02)"/><path class="cls-1" d="M-114.52,471.38h-42a1.76,1.76,0,0,1-1.75-1.75,1.75,1.75,0,0,1,1.75-1.75h42a1.75,1.75,0,0,1,1.75,1.75A1.75,1.75,0,0,1-114.52,471.38Z" transform="translate(192.7 -384.02)"/></svg>