<svg id="레이어_1" data-name="레이어 1" xmlns="http://www.w3.org/2000/svg" viewBox="0 0 103.37 118.84"><defs><style>.cls-1,.cls-3{fill:none;stroke:#fff;stroke-width:3px;}.cls-1{stroke-linecap:round;stroke-linejoin:round;}.cls-2{fill:#fff;}.cls-3{stroke-miterlimit:10;}</style></defs><polygon class="cls-1" points="25.44 26.96 25.44 34.53 51.69 45.69 77.93 34.53 77.93 26.96 51.69 38.12 25.44 26.96"/><path class="cls-2" d="M960.08,380.06a1.81,1.81,0,0,1-.69-.14l-42.91-18.24a1.75,1.75,0,0,1,0-3.22l42.91-18.24a1.72,1.72,0,0,1,1.37,0l42.92,18.24a1.75,1.75,0,0,1,0,3.22l-42.92,18.24A1.8,1.8,0,0,1,960.08,380.06Zm-38.45-20,38.45,16.34,38.44-16.34-38.44-16.34Z" transform="translate(-908.39 -340.08)"/><path class="cls-2" d="M960.08,403a68.64,68.64,0,0,1-26.94-5.18,1.76,1.76,0,0,1-1.06-1.61V368.65a1.75,1.75,0,0,1,3.5,0V395a69.5,69.5,0,0,0,49,0V368.65a1.75,1.75,0,0,1,3.5,0v27.51a1.76,1.76,0,0,1-1.06,1.61A68.59,68.59,0,0,1,960.08,403Z" transform="translate(-908.39 -340.08)"/><path class="cls-2" d="M994.46,399.29a1.75,1.75,0,0,1-1.75-1.75V365.37a1.75,1.75,0,1,1,3.5,0v32.17A1.76,1.76,0,0,1,994.46,399.29Z" transform="translate(-908.39 -340.08)"/><path class="cls-2" d="M971.4,458.91a1.63,1.63,0,0,1-.71-.16l-10.61-5.27-10.62,5.27a1.61,1.61,0,0,1-2.31-1.43V438.58a1.6,1.6,0,0,1,3.2,0v16.16l9-4.47a1.55,1.55,0,0,1,1.42,0l9,4.47V438.58a1.6,1.6,0,0,1,3.19,0v18.74a1.58,1.58,0,0,1-.75,1.35A1.61,1.61,0,0,1,971.4,458.91Z" transform="translate(-908.39 -340.08)"/><circle class="cls-3" cx="960.08" cy="425.05" r="16.86" transform="translate(-972.52 -146.14) rotate(-11.16)"/><path class="cls-2" d="M960.08,435.47a10.42,10.42,0,1,1,10.42-10.42A10.43,10.43,0,0,1,960.08,435.47Zm0-17.34a6.92,6.92,0,1,0,6.92,6.92A6.92,6.92,0,0,0,960.08,418.13Z" transform="translate(-908.39 -340.08)"/><path class="cls-2" d="M940.79,442.12h-6a1.75,1.75,0,0,1-1.75-1.75c0-12.83-12.52-13-13-13.05a1.75,1.75,0,0,1-1.75-1.75V371.62a1.75,1.75,0,0,1,3.5,0v52.3c5.63.61,13.91,4.21,14.74,14.7h4.33a1.75,1.75,0,0,1,0,3.5Z" transform="translate(-908.39 -340.08)"/><path class="cls-2" d="M985.38,442.12h-6a1.75,1.75,0,0,1,0-3.5h4.33c.83-10.49,9.11-14.09,14.73-14.7v-52.3a1.75,1.75,0,0,1,3.5,0v53.95a1.75,1.75,0,0,1-1.75,1.75c-.53,0-13,.22-13,13.05A1.75,1.75,0,0,1,985.38,442.12Z" transform="translate(-908.39 -340.08)"/><path class="cls-2" d="M940.79,451.2H910.14a1.75,1.75,0,0,1-1.75-1.75v-84a1.75,1.75,0,1,1,3.5,0V447.7h28.9a1.75,1.75,0,0,1,0,3.5Z" transform="translate(-908.39 -340.08)"/><path class="cls-2" d="M1010,451.2H979.37a1.75,1.75,0,0,1,0-3.5h28.89V365.42a1.75,1.75,0,0,1,3.5,0v84A1.75,1.75,0,0,1,1010,451.2Z" transform="translate(-908.39 -340.08)"/></svg>