<?xml version="1.0" encoding="UTF-8"?><svg id="_이어_1" xmlns="http://www.w3.org/2000/svg" viewBox="0 0 98.01 93.45"><defs><style>.cls-1{stroke:#003f8f;}.cls-1,.cls-2{fill:none;stroke-linecap:round;stroke-linejoin:round;stroke-width:4px;}.cls-2{stroke:#5a5555;}</style></defs><polyline class="cls-2" points="24.92 54.29 24.92 41.75 46.57 41.75 46.57 54.29"/><path class="cls-2" d="M79.9,62.43c9.21,.49,16.1,2.49,16.1,4.89V7c0-2.76-9.17-5-20.49-5s-20.49,2.24-20.49,5"/><path class="cls-2" d="M55.03,54.29V7c0-2.76-9.17-5-20.49-5S14.05,4.24,14.05,7V54.29"/><line class="cls-2" x1="46.57" y1="27.68" x2="24.92" y2="27.68"/><line class="cls-2" x1="40.01" y1="34.12" x2="24.92" y2="34.12"/><line class="cls-2" x1="46.57" y1="21.23" x2="24.92" y2="21.23"/><line class="cls-2" x1="33.33" y1="13.94" x2="22.31" y2="13.94"/><rect class="cls-1" x="2" y="54.29" width="77.06" height="37.15"/><g><g><line class="cls-1" x1="19.45" y1="83.31" x2="61.6" y2="83.31"/><line class="cls-1" x1="68.65" y1="83.31" x2="71.22" y2="83.31"/><line class="cls-1" x1="9.84" y1="83.31" x2="12.41" y2="83.31"/></g><g><line class="cls-1" x1="9.84" y1="62.43" x2="12.41" y2="62.43"/><line class="cls-1" x1="18.24" y1="62.43" x2="20.81" y2="62.43"/><line class="cls-1" x1="26.64" y1="62.43" x2="29.21" y2="62.43"/><line class="cls-1" x1="35.04" y1="62.43" x2="37.61" y2="62.43"/><line class="cls-1" x1="43.44" y1="62.43" x2="46.01" y2="62.43"/><line class="cls-1" x1="51.85" y1="62.43" x2="54.42" y2="62.43"/><line class="cls-1" x1="60.25" y1="62.43" x2="62.82" y2="62.43"/><line class="cls-1" x1="68.65" y1="62.43" x2="71.22" y2="62.43"/></g><g><line class="cls-1" x1="9.84" y1="69.39" x2="12.41" y2="69.39"/><line class="cls-1" x1="19.64" y1="69.39" x2="22.21" y2="69.39"/><line class="cls-1" x1="29.44" y1="69.39" x2="32.01" y2="69.39"/><line class="cls-1" x1="39.24" y1="69.39" x2="41.81" y2="69.39"/><line class="cls-1" x1="49.04" y1="69.39" x2="51.61" y2="69.39"/><line class="cls-1" x1="58.85" y1="69.39" x2="61.42" y2="69.39"/><line class="cls-1" x1="68.65" y1="69.39" x2="71.22" y2="69.39"/></g><g><line class="cls-1" x1="9.84" y1="76.35" x2="17.31" y2="76.35"/><line class="cls-1" x1="24.54" y1="76.35" x2="27.11" y2="76.35"/><line class="cls-1" x1="34.34" y1="76.35" x2="36.91" y2="76.35"/><line class="cls-1" x1="44.14" y1="76.35" x2="46.71" y2="76.35"/><line class="cls-1" x1="53.95" y1="76.35" x2="56.52" y2="76.35"/><line class="cls-1" x1="63.75" y1="76.35" x2="71.22" y2="76.35"/></g></g><polygon class="cls-1" points="71.76 20.21 75.49 39.37 79.32 34.54 85.14 42.5 88.93 39.73 83.12 31.77 88.88 29.59 71.76 20.21"/><line class="cls-1" x1="67.82" y1="14.84" x2="65.74" y2="12"/><line class="cls-1" x1="65.59" y1="18.73" x2="62.1" y2="18.31"/><line class="cls-1" x1="72.21" y1="13.89" x2="72.85" y2="10.42"/></svg>