<?xml version="1.0" encoding="UTF-8"?><svg id="_이어_1" xmlns="http://www.w3.org/2000/svg" viewBox="0 0 93.03 93.55"><defs><style>.cls-1{stroke:#003f8f;}.cls-1,.cls-2{fill:none;stroke-linecap:round;stroke-linejoin:round;stroke-width:4px;}.cls-2{stroke:#6d6d6d;}</style></defs><line class="cls-2" x1="69.23" y1="21.41" x2="69.23" y2="34.91"/><polyline class="cls-2" points="69.23 85.77 69.23 91.45 2 91.55 2 2.1 49.82 2"/><polyline class="cls-2" points="70.02 62.31 70.02 70.76 58.7 70.76"/><polyline class="cls-2" points="58.7 70.76 53.12 70.76 53.12 53.86 62.07 53.86"/><polyline class="cls-1" points="56.47 56.05 61.94 62.89 74.92 48.54"/><polygon class="cls-2" points="69.23 21.41 49.82 21.41 49.82 2 69.23 21.41"/><line class="cls-2" x1="14.55" y1="23.37" x2="33.59" y2="23.37"/><line class="cls-2" x1="14.55" y1="39.07" x2="48.82" y2="39.07"/><line class="cls-2" x1="14.55" y1="50.56" x2="40.03" y2="50.56"/><line class="cls-2" x1="14.55" y1="62.06" x2="38.32" y2="62.06"/><line class="cls-2" x1="14.55" y1="73.55" x2="32.18" y2="73.55"/><circle class="cls-1" cx="62.99" cy="59.58" r="24.68" transform="translate(-23.68 61.99) rotate(-45)"/><line class="cls-1" x1="78.36" y1="78.88" x2="91.03" y2="91.55"/></svg>