<?xml version="1.0" encoding="UTF-8"?><svg id="_이어_1" xmlns="http://www.w3.org/2000/svg" viewBox="0 0 93.45 89.6"><defs><style>.cls-1{fill:#5a5555;}.cls-2,.cls-3,.cls-4,.cls-5{fill:none;stroke-linecap:round;stroke-linejoin:round;stroke-width:4px;}.cls-2,.cls-5{stroke:#003f8f;}.cls-3,.cls-4{stroke:#5a5555;}.cls-4{stroke-dasharray:0 0 1.95 5.85;}.cls-5{stroke-dasharray:0 0 2 6;}</style></defs><line class="cls-2" x1="5.91" y1="53.6" x2="5.91" y2="66.94"/><line class="cls-2" x1="10.2" y1="56.64" x2="10.2" y2="63.9"/><line class="cls-2" x1="14.5" y1="53.6" x2="14.5" y2="66.94"/><line class="cls-2" x1="18.79" y1="56.64" x2="18.79" y2="63.9"/><line class="cls-2" x1="23.08" y1="53.6" x2="23.08" y2="66.94"/><line class="cls-2" x1="27.38" y1="45.83" x2="27.38" y2="74.72"/><line class="cls-2" x1="31.67" y1="53.6" x2="31.67" y2="66.94"/><line class="cls-2" x1="35.96" y1="39.39" x2="35.96" y2="81.15"/><line class="cls-2" x1="40.26" y1="45.83" x2="40.26" y2="74.72"/><line class="cls-2" x1="44.55" y1="53.6" x2="44.55" y2="66.94"/><line class="cls-2" x1="48.84" y1="56.64" x2="48.84" y2="63.9"/><line class="cls-2" x1="53.14" y1="53.6" x2="53.14" y2="66.94"/><line class="cls-2" x1="57.43" y1="56.64" x2="57.43" y2="63.9"/><line class="cls-2" x1="61.72" y1="53.6" x2="61.72" y2="66.94"/><line class="cls-2" x1="66.01" y1="48.83" x2="66.01" y2="71.71"/><line class="cls-2" x1="70.31" y1="56.64" x2="70.31" y2="63.9"/><line class="cls-2" x1="74.6" y1="48.83" x2="74.6" y2="71.71"/><line class="cls-2" x1="78.89" y1="39.39" x2="78.89" y2="81.15"/><line class="cls-2" x1="83.19" y1="45.83" x2="83.19" y2="74.72"/><line class="cls-2" x1="87.48" y1="53.6" x2="87.48" y2="66.94"/><g><line class="cls-3" x1="2" y1="32.94" x2="2" y2="33.94"/><line class="cls-4" x1="2" y1="39.79" x2="2" y2="83.68"/><line class="cls-3" x1="2" y1="86.6" x2="2" y2="87.6"/></g><g><line class="cls-3" x1="24.36" y1="32.94" x2="24.36" y2="33.94"/><line class="cls-4" x1="24.36" y1="39.79" x2="24.36" y2="83.68"/><line class="cls-3" x1="24.36" y1="86.6" x2="24.36" y2="87.6"/></g><g><line class="cls-3" x1="46.72" y1="32.94" x2="46.72" y2="33.94"/><line class="cls-4" x1="46.72" y1="39.79" x2="46.72" y2="83.68"/><line class="cls-3" x1="46.72" y1="86.6" x2="46.72" y2="87.6"/></g><g><line class="cls-3" x1="69.08" y1="32.94" x2="69.08" y2="33.94"/><line class="cls-4" x1="69.08" y1="39.79" x2="69.08" y2="83.68"/><line class="cls-3" x1="69.08" y1="86.6" x2="69.08" y2="87.6"/></g><g><line class="cls-3" x1="91.45" y1="32.94" x2="91.45" y2="33.94"/><line class="cls-4" x1="91.45" y1="39.79" x2="91.45" y2="83.68"/><line class="cls-3" x1="91.45" y1="86.6" x2="91.45" y2="87.6"/></g><path class="cls-1" d="M17.04,4.94v1.55c0,.21-.02,.37-.06,.49-.04,.12-.12,.23-.22,.33s-.25,.2-.42,.29c-.49,.27-.96,.46-1.41,.58s-.95,.18-1.48,.18c-.62,0-1.19-.1-1.7-.29-.51-.19-.95-.47-1.31-.83-.36-.36-.64-.81-.83-1.33-.19-.52-.29-1.1-.29-1.74s.09-1.21,.28-1.73c.19-.52,.46-.97,.83-1.33,.36-.36,.81-.64,1.33-.84s1.12-.29,1.78-.29c.54,0,1.03,.07,1.45,.22,.42,.15,.76,.33,1.02,.55s.46,.45,.59,.7c.13,.25,.2,.47,.2,.66,0,.21-.08,.38-.23,.53-.15,.15-.34,.22-.55,.22-.12,0-.23-.03-.34-.08-.11-.06-.2-.13-.27-.23-.2-.32-.37-.56-.51-.72s-.33-.3-.57-.41c-.24-.11-.54-.17-.91-.17s-.72,.07-1.02,.2-.55,.32-.76,.57c-.21,.25-.37,.55-.49,.91s-.17,.76-.17,1.2c0,.95,.22,1.68,.65,2.19,.44,.51,1.04,.77,1.83,.77,.38,0,.74-.05,1.07-.15s.67-.24,1.01-.43v-1.31h-1.27c-.31,0-.54-.05-.69-.14-.16-.09-.23-.25-.23-.47,0-.18,.07-.33,.2-.45s.31-.18,.53-.18h1.86c.23,0,.42,.02,.58,.06s.29,.13,.38,.27c.1,.14,.15,.35,.15,.63Z"/><g><path class="cls-1" d="M32.89,1.4h-3.69v1.99h3.4c.25,0,.44,.06,.56,.17,.12,.11,.18,.26,.18,.44s-.06,.33-.18,.45c-.12,.12-.31,.17-.56,.17h-3.4v2.3h3.82c.26,0,.45,.06,.58,.18,.13,.12,.2,.28,.2,.48s-.07,.35-.2,.47c-.13,.12-.32,.18-.58,.18h-4.46c-.36,0-.61-.08-.77-.24-.16-.16-.23-.41-.23-.77V1.14c0-.24,.03-.43,.1-.58,.07-.15,.18-.26,.33-.33,.15-.07,.34-.1,.57-.1h4.33c.26,0,.46,.06,.58,.17,.13,.12,.19,.27,.19,.46s-.06,.35-.19,.46c-.13,.12-.32,.17-.58,.17Z"/><path class="cls-1" d="M40,5.42v2c0,.32-.07,.55-.22,.71-.14,.16-.33,.24-.57,.24s-.41-.08-.56-.24c-.14-.16-.21-.4-.21-.71v-2.4c0-.38-.01-.67-.04-.88-.03-.21-.1-.38-.21-.52-.11-.13-.29-.2-.54-.2-.49,0-.82,.17-.97,.51-.16,.34-.23,.82-.23,1.46v2.04c0,.31-.07,.55-.21,.71-.14,.16-.33,.24-.56,.24s-.42-.08-.56-.24c-.15-.16-.22-.4-.22-.71V3.11c0-.28,.07-.5,.2-.65,.13-.15,.3-.22,.52-.22s.38,.07,.52,.21,.21,.33,.21,.57v.14c.26-.31,.54-.54,.84-.69s.63-.22,.99-.22,.7,.08,.98,.23c.27,.15,.5,.38,.67,.68,.25-.31,.53-.54,.82-.69,.29-.15,.61-.22,.97-.22,.41,0,.77,.08,1.07,.24s.52,.39,.67,.7c.13,.27,.19,.7,.19,1.29v2.94c0,.32-.07,.55-.22,.71-.14,.16-.33,.24-.57,.24s-.42-.08-.56-.24c-.15-.16-.22-.4-.22-.71v-2.53c0-.32-.01-.58-.04-.78-.03-.2-.1-.36-.22-.49-.12-.13-.31-.2-.55-.2-.2,0-.39,.06-.57,.18-.18,.12-.32,.28-.42,.47-.11,.25-.17,.7-.17,1.35Z"/></g><path class="cls-1" d="M61.51,5.68c0,.26-.06,.54-.19,.84-.13,.3-.33,.59-.6,.88s-.62,.52-1.04,.7c-.42,.18-.92,.27-1.48,.27-.43,0-.82-.04-1.17-.12s-.67-.21-.95-.38c-.29-.17-.55-.4-.79-.68-.21-.25-.4-.54-.55-.85-.15-.31-.26-.65-.34-1.01-.08-.36-.11-.74-.11-1.14,0-.65,.09-1.24,.28-1.75s.46-.96,.81-1.32,.77-.65,1.24-.84c.47-.19,.98-.29,1.52-.29,.66,0,1.24,.13,1.75,.39s.9,.58,1.18,.97c.27,.38,.41,.75,.41,1.09,0,.19-.07,.35-.2,.5-.13,.14-.29,.22-.48,.22-.21,0-.37-.05-.47-.15-.1-.1-.22-.27-.35-.51-.21-.4-.46-.7-.75-.9s-.65-.3-1.07-.3c-.67,0-1.21,.26-1.61,.77-.4,.51-.6,1.24-.6,2.18,0,.63,.09,1.15,.26,1.57,.18,.42,.43,.73,.75,.94,.32,.21,.7,.31,1.14,.31,.47,0,.87-.12,1.2-.35,.33-.23,.57-.58,.74-1.03,.07-.21,.16-.39,.26-.52,.1-.13,.27-.2,.5-.2,.2,0,.36,.07,.5,.2s.21,.31,.21,.51Z"/><g><path class="cls-1" d="M77.45,7.32l-.39-1.02h-3.29l-.39,1.04c-.15,.4-.28,.68-.39,.82-.11,.14-.28,.21-.52,.21-.21,0-.39-.08-.55-.23-.16-.15-.24-.32-.24-.51,0-.11,.02-.22,.06-.34s.1-.28,.18-.49l2.07-5.26c.06-.15,.13-.33,.21-.54,.08-.21,.17-.39,.27-.53,.09-.14,.22-.25,.37-.34s.34-.13,.57-.13,.42,.04,.57,.13,.28,.2,.37,.33c.09,.14,.17,.28,.24,.44,.06,.16,.15,.37,.25,.63l2.11,5.22c.17,.4,.25,.69,.25,.87s-.08,.36-.23,.52c-.16,.16-.35,.23-.57,.23-.13,0-.24-.02-.33-.07-.09-.05-.17-.11-.23-.19-.06-.08-.13-.2-.2-.36-.07-.16-.13-.31-.18-.43Zm-3.25-2.25h2.42l-1.22-3.34-1.2,3.34Z"/><path class="cls-1" d="M85.31,5.42v2c0,.32-.07,.55-.22,.71-.14,.16-.33,.24-.57,.24s-.41-.08-.55-.24c-.14-.16-.21-.4-.21-.71v-2.4c0-.38-.01-.67-.04-.88-.03-.21-.1-.38-.21-.52-.11-.13-.29-.2-.54-.2-.49,0-.82,.17-.97,.51-.16,.34-.23,.82-.23,1.46v2.04c0,.31-.07,.55-.21,.71-.14,.16-.33,.24-.56,.24s-.42-.08-.56-.24c-.15-.16-.22-.4-.22-.71V3.11c0-.28,.07-.5,.2-.65,.13-.15,.3-.22,.52-.22s.38,.07,.52,.21c.14,.14,.21,.33,.21,.57v.14c.26-.31,.54-.54,.84-.69,.3-.15,.63-.22,.99-.22s.71,.08,.98,.23c.27,.15,.5,.38,.67,.68,.25-.31,.53-.54,.82-.69,.29-.15,.61-.22,.97-.22,.41,0,.77,.08,1.07,.24s.52,.39,.67,.7c.13,.27,.19,.7,.19,1.29v2.94c0,.32-.07,.55-.22,.71-.14,.16-.33,.24-.57,.24s-.42-.08-.56-.24c-.15-.16-.22-.4-.22-.71v-2.53c0-.32-.01-.58-.04-.78s-.1-.36-.22-.49c-.12-.13-.31-.2-.55-.2-.2,0-.39,.06-.57,.18-.18,.12-.32,.28-.42,.47-.11,.25-.17,.7-.17,1.35Z"/></g><line class="cls-5" x1="13.18" y1="14.32" x2="13.18" y2="23.98"/><line class="cls-5" x1="35.54" y1="14.32" x2="35.54" y2="23.98"/><line class="cls-5" x1="57.9" y1="14.32" x2="57.9" y2="23.98"/><line class="cls-5" x1="80.27" y1="14.32" x2="80.27" y2="23.98"/></svg>