<?xml version="1.0" encoding="UTF-8"?><svg id="_이어_1" xmlns="http://www.w3.org/2000/svg" viewBox="0 0 97.89 98.77"><defs><style>.cls-1{fill:#003f8f;}.cls-1,.cls-2{stroke:#003f8f;}.cls-1,.cls-2,.cls-3{stroke-linecap:round;stroke-linejoin:round;}.cls-2,.cls-3{fill:none;stroke-width:4px;}.cls-3{stroke:#6d6d6d;}</style></defs><line class="cls-3" x1="38.6" y1="49.58" x2="77.4" y2="49.58"/><line class="cls-3" x1="42.71" y1="59.73" x2="77.4" y2="59.73"/><line class="cls-3" x1="50.83" y1="69.89" x2="77.4" y2="69.89"/><line class="cls-3" x1="65.35" y1="80.05" x2="77.4" y2="80.05"/><line class="cls-3" x1="38.6" y1="32.84" x2="50.65" y2="32.84"/><polyline class="cls-3" points="23.45 40.83 23.45 7.32 63.22 7.22"/><polyline class="cls-3" points="90.67 34.66 90.67 96.66 23.45 96.77 23.45 63.94"/><circle class="cls-2" cx="76.48" cy="21.42" r="19.42"/><path class="cls-1" d="M81.44,28.03l-.96-2.52h-8.15l-.96,2.57c-.37,1-.69,1.68-.96,2.03-.26,.35-.7,.53-1.3,.53-.51,0-.96-.19-1.35-.56-.39-.37-.59-.8-.59-1.27,0-.27,.05-.56,.14-.85,.09-.29,.24-.7,.45-1.22l5.13-13.03c.15-.37,.32-.82,.53-1.35,.21-.52,.42-.96,.66-1.31s.54-.63,.92-.84c.38-.21,.85-.32,1.4-.32s1.04,.11,1.42,.32c.38,.21,.68,.49,.92,.83s.43,.7,.59,1.09c.16,.39,.36,.91,.61,1.55l5.24,12.94c.41,.99,.62,1.7,.62,2.15s-.19,.89-.58,1.28-.86,.58-1.4,.58c-.32,0-.59-.06-.82-.17-.23-.11-.42-.27-.57-.47-.15-.2-.32-.5-.5-.9-.18-.41-.33-.76-.46-1.07Zm-8.04-5.57h5.99l-3.02-8.28-2.97,8.28Z"/><g><rect class="cls-2" x="18.53" y="29.11" width="15.77" height="53.28" transform="translate(84.51 76.49) rotate(135)"/><polygon class="cls-2" points="50.83 69.01 39.67 80.16 56.09 85.42 50.83 69.01"/><line class="cls-2" x1="20.24" y1="38.42" x2="9.09" y2="49.58"/><line class="cls-2" x1="24.67" y1="42.85" x2="13.51" y2="54"/><line class="cls-2" x1="19.36" y1="48.69" x2="45.25" y2="74.59"/></g></svg>