<?xml version="1.0" encoding="UTF-8"?><svg id="_이어_1" xmlns="http://www.w3.org/2000/svg" viewBox="0 0 93.59 79.47"><defs><style>.cls-1{stroke:#003f8f;}.cls-1,.cls-2{fill:none;stroke-linecap:round;stroke-linejoin:round;stroke-width:4px;}.cls-2{stroke:#5a5555;}</style></defs><path class="cls-2" d="M30.82,49.04H7.27c-2.91,0-5.27-2.36-5.27-5.27V7.27c0-2.91,2.36-5.27,5.27-5.27H55.94c2.91,0,5.27,2.36,5.27,5.27v29.26"/><polyline class="cls-2" points="30.82 41.12 10.08 41.12 10.08 9.92 53.12 9.92 53.12 36.98"/><polygon class="cls-2" points="40.03 25.52 27.46 33.24 27.46 17.8 40.03 25.52"/><path class="cls-1" d="M76.4,73.65c8.39,0,15.19,1.71,15.19,3.82V40.35c0-2.11-6.8-3.82-15.19-3.82s-15.19,1.71-15.19,3.82v37.12c0-2.11,6.8-3.82,15.19-3.82Z"/><path class="cls-1" d="M46.01,73.65c8.39,0,15.19,1.71,15.19,3.82V40.35c0-2.11-6.8-3.82-15.19-3.82s-15.19,1.71-15.19,3.82v37.12c0-2.11,6.8-3.82,15.19-3.82Z"/><line class="cls-1" x1="83.53" y1="64.03" x2="69.27" y2="64.03"/><line class="cls-1" x1="83.53" y1="55.64" x2="69.27" y2="55.64"/><line class="cls-1" x1="83.53" y1="47.26" x2="69.27" y2="47.26"/><line class="cls-1" x1="53.14" y1="64.03" x2="38.88" y2="64.03"/><line class="cls-1" x1="53.14" y1="55.64" x2="38.88" y2="55.64"/><line class="cls-1" x1="53.14" y1="47.26" x2="38.88" y2="47.26"/></svg>