<svg id="레이어_1" data-name="레이어 1" xmlns="http://www.w3.org/2000/svg" viewBox="0 0 236.32 130.32"><defs><style>.cls-1{fill:#1e438a;}.cls-2{fill:#fff;}</style></defs><rect class="cls-1" width="120.07" height="73.78"/><path class="cls-1" d="M872.11,439v19.45H858.19V439Zm-9.84,3.27v12.92H868V442.25Zm18.48-5.87v29H876.6v-29Z" transform="translate(-842.22 -335.08)"/><path class="cls-1" d="M952.76,455a62.28,62.28,0,0,0,11.78-.85l.38,3.43c-3.93.75-7.61.88-13.77.88h-2.54V439h14v3.37h-9.83Zm18.09-18.66v29h-4.14v-29Z" transform="translate(-842.22 -335.08)"/><path class="cls-1" d="M1062.56,436.38v29h-4.14V450.17h-4.81c-.44,5.53-3.39,8.92-7.42,8.92-4.3,0-7.47-4-7.47-10.37s3.17-10.3,7.47-10.3c3.9,0,6.82,3.17,7.39,8.39h4.84V436.38Zm-12.81,12.34c0-4.27-1.42-6.56-3.56-6.56s-3.51,2.29-3.51,6.56,1.41,6.6,3.51,6.6S1049.75,453,1049.75,448.72Z" transform="translate(-842.22 -335.08)"/><path class="cls-2" d="M870.58,348.7h7.86v38.09H851.62V348.7h7.86v13.37h11.1Zm0,19.55h-11.1v12.24h11.1Zm30.66,3.24h-8v28.08h-7.92v-55.2h7.92v20.52h8Z" transform="translate(-842.22 -335.08)"/><path class="cls-2" d="M955.18,374.19v6.3h-50v-6.3Zm-13.92-22.62h-30v-6h37.8v15.36H919.18v3.84h31v6H911.38V355.35h29.88Zm-21.9,40.74h31v6.3H911.44V383.49h7.92Z" transform="translate(-842.22 -335.08)"/><path class="cls-1" d="M1001.58,376.53h-26.1V348h7.86v8.39h10.5V348h7.74v11h9.84V344.37h7.91v40.74h-7.91V365.37h-9.84Zm18.95,15.78v6.3H982.86V381.15h7.92v11.16Zm-26.69-29.88h-10.5v7.8h10.5Z" transform="translate(-842.22 -335.08)"/><path class="cls-1" d="M1074.54,344.32V377h-7.92v-7h-12a15,15,0,0,1-11,4.56c-8.16,0-14.52-5.76-14.52-13.74s6.36-13.67,14.52-13.67a15.11,15.11,0,0,1,11.1,4.55h11.94v-7.43Zm-23.88,16.55c0-4.32-3-6.9-7.08-6.9s-7,2.58-7,6.9,3,7,7,7S1050.66,365.25,1050.66,360.87Zm-13.74,18.66h37.62v20.1h-7.92V385.77h-29.7Zm29.7-15.78v-5.7h-8.76a14,14,0,0,1,.3,2.82,15.64,15.64,0,0,1-.3,2.88Z" transform="translate(-842.22 -335.08)"/><rect class="cls-1" y="86.99" width="236.32" height="4.74"/></svg>