<svg xmlns="http://www.w3.org/2000/svg" width="482.25" height="88.48" viewBox="0 0 482.25 88.48">
  <defs>
    <linearGradient id="p03x1rv66a" x1="4.2352681" x2="7.2833438" y1="46.419338" y2="47.509998" gradientTransform="scale(1.5708569,0.63659522)" gradientUnits="userSpaceOnUse">
      <stop offset="0%" stop-color="#00C0FF"></stop>
      <stop offset="99.951%" stop-color="#008CFF"></stop>
    </linearGradient>
    <linearGradient id="98g8xpgnob" x1="45.634933" x2="46.691784" y1="8.175293" y2="13.233778" gradientTransform="scale(0.87235368,1.146324)" gradientUnits="userSpaceOnUse">
      <stop offset="0%" stop-color="#00C0FF"></stop>
      <stop offset="100%" stop-color="#008CFF"></stop>
    </linearGradient>
    <radialGradient id="iq0uj45s6c" cx="12.535602" cy="0" r="61.186199" fx="12.535602" fy="0" gradientTransform="scale(0.9541624,1.0480396)" gradientUnits="userSpaceOnUse">
      <stop offset="0%" stop-color="#00C0FF"></stop>
      <stop offset="54.318%" stop-color="#00BDFF"></stop>
      <stop offset="100%" stop-color="#008CFF"></stop>
    </radialGradient>
  </defs>
  <g fill="none" fill-rule="evenodd" transform="matrix(2.197916,0,0,2.197916,-15.805984,-6.3004724)">
    <g>
      <path fill="#935227" d="m 76,15.2 c 3.2,0 4.8,1.5 5.5,2.8 0.1,0.1 0.1,0.2 0.1,0.3 v 0.1 c 0,0.1 0,0.2 -0.1,0.2 v 0 l -2.4,1.2 H 79 c -0.1,0 -0.2,-0.1 -0.2,-0.1 -0.4,-0.8 -1.2,-1.7 -2.9,-1.7 -2.7,0 -3.2,2.3 -3.2,3 v 4.7 c 0,0.7 0.4,3 3.2,3 1.7,0 2.5,-0.9 2.8,-1.7 v 0 c 0,-0.1 0.1,-0.1 0.2,-0.1 H 79 v 0 l 2.4,1.2 v 0 0 c 0.1,0 0.1,0.1 0.1,0.2 v 0.1 c 0,0.1 -0.1,0.2 -0.1,0.3 -0.8,1.3 -2.3,2.8 -5.5,2.8 v 0 c -3.2,0 -4.8,-1.5 -5.5,-2.8 -0.8,-1.4 -0.8,-2.8 -0.8,-3.1 V 21 c 0,-0.4 0.1,-1.8 0.8,-3.1 0.8,-1.2 2.3,-2.7 5.6,-2.7 v 0 c -0.1,0 0,0 0,0 z m 13,0 c 3.2,0 4.8,1.5 5.5,2.8 0.8,1.4 0.8,2.8 0.8,3.1 v 4.4 c 0,0.3 0,1.7 -0.8,3.1 -0.7,1.3 -2.3,2.8 -5.5,2.8 v 0 c -3.2,0 -4.8,-1.5 -5.5,-2.8 -0.8,-1.4 -0.8,-2.8 -0.8,-3.1 V 21 c 0,-0.4 0.1,-1.8 0.8,-3.1 0.7,-1.2 2.2,-2.7 5.5,-2.7 z m 20.9,0.3 v 0 c 0.1,0 0.2,0.1 0.2,0.2 v 15.2 0 c 0,0.1 -0.1,0.2 -0.2,0.2 h -2.5 v 0 c -0.1,0 -0.2,-0.1 -0.2,-0.2 v 0 -1.1 c -0.8,0.8 -2.1,1.6 -4,1.6 v 0 c -2.9,0 -4.3,-1.5 -5,-2.8 -0.7,-1.4 -0.7,-2.8 -0.7,-3.1 v -9.8 c 0,-0.1 0.1,-0.2 0.2,-0.2 v 0 h 2.7 v 0 c 0.1,0 0.2,0.1 0.2,0.2 v 0 9.9 c 0,0.7 0.4,3 3.2,3 2.7,0 3.2,-2.3 3.2,-3 v -4.6 0 -5.4 0 c 0,-0.1 0.1,-0.2 0.2,-0.2 v 0 h 2.7 z M 89,18 c -2.7,0 -3.2,2.3 -3.2,3 v 4.7 c 0,0.7 0.4,3 3.2,3 2.7,0 3.2,-2.3 3.2,-3 V 21 C 92.1,20.3 91.7,18 89,18 Z m 96.8,-2.8 c 2.9,0 4.3,1.5 5,2.8 0.7,1.4 0.7,2.8 0.7,3.1 v 4.5 c 0,0.4 -0.1,1.8 -0.7,3.1 -0.7,1.3 -2.1,2.8 -5,2.8 v 0 c -1.8,0 -3,-0.7 -3.8,-1.4 v 7.4 0 0 0 0 c 0,0.1 -0.1,0.2 -0.2,0.2 v 0 H 179 c -0.1,0 -0.2,-0.1 -0.2,-0.2 v 0 -21.8 0 c 0,-0.1 0.1,-0.2 0.2,-0.2 v 0 0 h 2.5 v 0 0 c 0.1,0 0.2,0.1 0.2,0.2 v 0 0 1.1 c 0.9,-0.8 2.2,-1.6 4.1,-1.6 v 0 z m 29.5,0.3 c 0.5,0 0.7,0.2 0.8,0.6 0.6,2.3 1.1,4.5 1.7,6.8 l 1.3,5.3 h 0.1 l 3.9,-12 c 0.1,-0.3 0.3,-0.7 0.9,-0.7 h 2.1 c 0.4,0 0.5,0.2 0.5,0.5 v 0.2 l -6.8,20.6 c -0.1,0.4 -0.4,0.7 -1.1,0.7 h -1.8 c -0.5,0 -0.8,-0.4 -0.5,-0.9 l 1.8,-5.5 h -0.8 c -0.5,0 -0.7,-0.2 -0.9,-0.7 l -4,-14.2 V 16 c 0,-0.3 0.1,-0.5 0.5,-0.5 z m -14.9,0.8 c 1,-0.4 4.8,-1.8 7.7,-0.7 2.8,1.2 3.4,4.1 3.4,5.3 v 0.1 1.6 0 8.2 c 0,0.1 -0.1,0.2 -0.2,0.2 v 0 0 h -2.4 v 0 c -0.1,0 -0.2,-0.1 -0.2,-0.2 v 0 0 -0.7 c -0.8,0.6 -2,1.2 -3.7,1.3 v 0 c -2.9,0 -4.3,-1.4 -5,-2.6 -0.7,-1.3 -0.7,-2.7 -0.7,-2.9 0,-0.3 0,-1.6 0.7,-2.9 0.7,-1.2 2.1,-2.6 5,-2.6 v 0 c 1.6,0 2.8,0.6 3.6,1.2 V 21 c 0,-0.5 -0.1,-1.9 -1.6,-2.6 -1.7,-0.8 -4.6,0.2 -5.6,0.7 h -0.1 c -0.1,0 -0.2,-0.1 -0.2,-0.1 v 0 l -0.8,-2.2 v 0 -0.1 c -0.1,-0.3 0,-0.4 0.1,-0.4 z m -3.7,-7.8 c 0.2,0 0.4,0.1 0.4,0.3 v 21.9 c 0,0.2 -0.1,0.3 -0.4,0.3 H 194 c -0.2,0 -0.3,-0.1 -0.3,-0.4 V 8.9 c 0,-0.2 0.1,-0.4 0.3,-0.4 z m 8.7,14.3 c -2.6,0 -3.1,2.2 -3.1,2.8 v 0.3 c 0,0.6 0.4,2.8 3.1,2.8 2.6,0 3.1,-2.2 3.1,-2.8 v -0.3 c 0,-0.6 -0.4,-2.8 -3.1,-2.8 z M 185.1,18 c -2.7,0 -3.2,2.3 -3.2,3 v 4.7 c 0,0.7 0.4,3 3.2,3 2.7,0 3.2,-2.3 3.2,-3 V 21 c 0,-0.7 -0.4,-3 -3.2,-3 z"></path>
      <path fill="#F7552F" d="m 122.1,25.6 c 0,0.7 -0.4,3 -3.2,3 -2.7,0 -3.2,-2.3 -3.2,-3 V 21 c 0,-0.7 0.4,-3 3.2,-3 2.7,0 3.2,2.3 3.2,3 0,0 0,4.6 0,4.6 z m -2.5,-10.4 v 0 0 0 c -1.9,0 -3.2,0.8 -4,1.6 v -1.1 0 c 0,0 0,0 0,0 0,-0.1 -0.1,-0.2 -0.2,-0.2 v 0 c 0,0 0,0 0,0 h -2.5 c 0,0 0,0 0,0 v 0 c -0.1,0 -0.2,0.1 -0.2,0.2 0,0 0,0 0,0 v 0 21.6 0 c 0,0.1 0.1,0.2 0.2,0.2 h 2.8 v 0 c 0.1,0 0.2,-0.1 0.2,-0.2 0,0 0,0 0,0 v 0 c 0,0 0,0 0,0 0,0 0,0 0,0 V 30 c 0.8,0.7 2,1.4 3.8,1.4 v 0 c 2.9,0 4.3,-1.5 5,-2.8 0.7,-1.4 0.7,-2.8 0.7,-3.1 v -4.4 c 0,-0.3 0,-1.7 -0.7,-3.1 -0.8,-1.3 -2.2,-2.8 -5.1,-2.8 z"></path>
      <path fill="#FFC400" d="m 136.3,25.9 c 0,0.6 -0.4,2.8 -3.1,2.8 -2.7,0 -3.1,-2.2 -3.1,-2.8 v -0.3 c 0,-0.6 0.4,-2.8 3.1,-2.8 2.6,0 3.1,2.2 3.1,2.8 z m -0.5,-10.3 c -2.9,-1.2 -6.7,0.2 -7.7,0.7 v 0 c -0.1,0 -0.2,0.1 -0.2,0.2 0,0 0,0.1 0,0.1 0,0 0,0 0,0 l 0.8,2.2 c 0,0 0,0 0,0 0,0.1 0.1,0.1 0.2,0.1 0,0 0.1,0 0.1,0 v 0 c 1.1,-0.5 3.9,-1.5 5.6,-0.7 1.7,0.8 1.5,2.6 1.6,2.8 v 0.4 c -0.8,-0.6 -2,-1.2 -3.6,-1.2 v 0 c -2.9,0 -4.3,1.4 -5,2.6 -0.7,1.3 -0.7,2.7 -0.7,2.9 v 0 c 0,0.3 0,1.6 0.7,2.9 0.7,1.2 2.1,2.6 5,2.6 v 0 c 1.7,0 2.9,-0.6 3.7,-1.3 v 0.7 0 0 0 c 0,0.1 0.1,0.2 0.2,0.2 0,0 0,0 0,0 v 0 h 2.4 v 0 c 0,0 0,0 0,0 0.1,0 0.2,-0.1 0.2,-0.2 v -8.2 0 -1.4 c 0,0 0,-0.1 0,-0.1 0.1,-1.2 -0.5,-4.1 -3.3,-5.3 z"></path>
      <path fill="#88CC2F" d="m 148.7,15.2 v 0 c 0,0 0,0 0,0 v 0 0 c -1.9,0 -3.2,0.8 -4,1.6 v -1.1 0 c 0,0 0,0 0,0 0,-0.1 -0.1,-0.2 -0.2,-0.2 v 0 h -2.6 v 0 c -0.1,0 -0.2,0.1 -0.2,0.2 0,0 0,0 0,0 v 0 15.2 0 c 0,0.1 0.1,0.2 0.2,0.2 v 0 0 h 2.7 v 0 c 0.1,0 0.2,-0.1 0.2,-0.2 v 0 -10.1 c 0.1,-0.8 0.6,-2.8 3.2,-2.8 2.7,0 3.2,2.3 3.2,3 v 9.9 0 c 0,0 0,0 0,0 0,0.1 0.1,0.2 0.2,0.2 h 2.8 v 0 c 0.1,0 0.2,-0.1 0.2,-0.2 v -9.8 c 0,-0.3 0,-1.7 -0.7,-3.1 -0.7,-1.3 -2.1,-2.8 -5,-2.8"></path>
      <path fill="#31B4DD" d="m 166,21 c 0,0.6 -0.4,2.8 -3.2,2.8 -2.7,0 -3.2,-2.2 -3.2,-2.8 v -0.2 c 0,-0.6 0.4,-2.8 3.2,-2.8 2.7,0 3.2,2.2 3.2,2.8 z m 4.8,-5.7 v 0 c -1.6,0 -2.7,0.6 -3.4,1.4 -0.9,-0.8 -2.3,-1.4 -4.5,-1.5 v 0 0 c -3.2,0 -4.8,1.4 -5.5,2.7 -0.8,1.3 -0.8,2.7 -0.8,3 V 21 c 0,0.3 0,1.7 0.8,3 0.3,0.6 0.8,1.1 1.6,1.6 -1.2,0.7 -2.3,1.9 -2.3,4.1 v 1.2 c 0,0.1 0.1,0.2 0.2,0.2 v 0 h 9.2 c 1.1,0 1.7,0.7 1.8,1.4 0.2,0.9 -0.1,2 -1.6,2.8 v 0 c -0.1,0 -0.2,0.1 -0.2,0.2 0,0 0,0.1 0,0.1 v 0 l 1.2,2.2 v 0 c 0,0.1 0.1,0.1 0.2,0.1 0,0 0.1,0 0.1,0 v 0 c 2.8,-1.4 3.4,-4.1 2.9,-6.1 -0.5,-2.1 -2.3,-3.6 -4.5,-3.6 l -6.3,0.1 c 0.4,-1.9 2.6,-1.9 2.9,-1.9 v 0 c 0.1,0 0.2,0 0.3,0 v 0 c 3.2,0 4.8,-1.4 5.5,-2.7 0.8,-1.3 0.8,-2.7 0.8,-3 v -0.1 c 0,-0.2 0,-1.3 -0.5,-2.4 0.4,-0.3 1.1,-0.6 2,-0.5 0,0 0,0 0,0 0.1,0 0.2,-0.1 0.2,-0.2 v -2.2 c 0.1,0.1 0,0 -0.1,0 z"></path>
    </g>
    <g>
      <path fill="#00C0FF" d="M 40.848,15.88 C 45.214,11.771 47.296,7.977 46.095,5.391 44.423,1.791 35.381,2.975 25.335,7.353 19.955,9.83 17.57,10.989 12.338,14.553 3.51,20.822 -1.748,27.628 0.532,30.862 c 1.542,2.19 6.33,2.178 12.242,0.558 L 12.71,28.952 c -3.122,0.43 -5.598,0.064 -6.412,-1.335 -1.271,-2.185 1.258,-6.16 6.115,-10.175 4.807,-3.738 10.03,-6.556 15.595,-8.62 6.021,-2.116 11.044,-2.38 12.321,-0.185 0.812,1.396 0.043,3.524 -1.881,5.925 l 2.4,1.32 z" transform="translate(7.191358,2.875)"></path>
      <path fill="url(#p03x1rv66a)" d="m 6.298,27.615 -5.766,3.246 c 1.542,2.19 6.33,2.178 12.242,0.558 L 12.71,28.951 c -3.122,0.43 -5.598,0.065 -6.412,-1.336" transform="translate(7.191358,2.875)"></path>
      <path fill="url(#98g8xpgnob)" d="m 46.095,5.391 -5.766,3.245 c 0.812,1.396 0.043,3.524 -1.881,5.925 l 2.4,1.32 c 4.366,-4.11 6.448,-7.904 5.247,-10.49" transform="translate(7.191358,2.875)"></path>
      <path fill="url(#iq0uj45s6c)" d="m 11.961,0 0.284,10.987 c 2.79,-0.91 6.608,-1.574 9.013,-1.72 -2.93,1.411 -5.907,3.205 -8.92,5.287 L 13.003,40.246 48.602,20.143 11.962,0 Z" transform="translate(7.191358,2.875)"></path>
    </g>
    <path d="M 0,0 H 233 V 46 H 0 Z"></path>
  </g>
</svg>