<?xml version="1.0" encoding="utf-8"?>
<!-- Generator: Adobe Illustrator 21.0.0, SVG Export Plug-In . SVG Version: 6.00 Build 0)  -->
<svg version="1.1" id="레이어_1" xmlns="http://www.w3.org/2000/svg" xmlns:xlink="http://www.w3.org/1999/xlink" x="0px"
	 y="0px" viewBox="0 0 227.7 116.2" style="enable-background:new 0 0 227.7 116.2;" xml:space="preserve">
<style type="text/css">
	.st0{fill:#E44132;}
</style>
<g>
	<g>
		<g>
			<g>
				<g>
					<path class="st0" d="M136.3,80.2c1.3,0.6,2.9,1,4,1c1.8,0,3.8-1.2,3.8-3.5c0-1.6-0.7-2.6-3.8-4.1c-2.5-1.3-4.6-2.6-4.6-6
						c0-3.6,2.5-5.8,6.2-5.8c1.3,0,2.8,0.2,4.2,0.8l-0.4,2.8c-1.5-0.7-2.3-0.9-3.6-0.9c-2.2,0-3.4,1-3.4,2.8c0,2,2,2.8,3.7,3.7
						c2.1,1.2,4.7,2.6,4.7,6.5c0,4.1-2.7,6.4-7.1,6.4c-1.4,0-2.6-0.4-4-0.9L136.3,80.2z"/>
					<path class="st0" d="M155.4,83.6V64.9h-6v-2.7h14.9v2.7h-6v18.7H155.4z"/>
					<path class="st0" d="M166.6,72.9c0-6.2,3.4-11.1,9.4-11.1c5.8,0,9.4,4.6,9.4,11.1c0,6.7-3.6,11.1-9.4,11.1
						C170.2,83.9,166.6,79.6,166.6,72.9z M182.3,72.9c0-4.3-2-8.4-6.4-8.4c-4.1,0-6.4,3.8-6.4,8.4c0,4.8,2.3,8.4,6.4,8.4
						C180.1,81.2,182.3,77.6,182.3,72.9z"/>
					<path class="st0" d="M200.3,83.6l-2.7-6.8c-0.9-2.3-1.5-2.7-3.2-2.7h-2v9.5h-2.8V62.2h5.1c5.4,0,7.2,2.1,7.2,5.8
						c0,2.4-1.6,4.4-4,4.9v0.1c0.9,0.4,1.4,1,2.1,2.5l3.5,8.1H200.3z M194.9,71.4c2.5,0,4.2-1.2,4.2-3.3c0-2-1.4-3.2-3.9-3.2h-2.6
						v6.5H194.9z"/>
					<path class="st0" d="M212.3,83.6v-8.9l-7.6-12.4h3.3l5.8,9.6l5.7-9.6h3.3l-7.6,12.4v8.9H212.3z"/>
				</g>
			</g>
			<g>
				<path class="st0" d="M137.1,46.9V25.6h10.3v2.7h-7.6v6.2h7.2v2.7h-7.2v9.7H137.1z"/>
				<path class="st0" d="M164.6,46.9l-8.8-17.6h-0.1v17.6H153V25.6h3.8l8.6,17.2h0.1V25.6h2.8v21.4H164.6z"/>
				<path class="st0" d="M188.6,46.5c-1.1,0.5-2.5,0.8-4.4,0.8c-6.2,0-10.3-4.4-10.3-11.1c0-6.5,4.3-11,10.3-11c1.5,0,3,0.2,4.4,0.9
					l-0.2,3c-1.2-0.8-2.6-1.2-4-1.2c-4.4,0-7.5,3.5-7.5,8.4c0,4.9,3.2,8.4,7.3,8.4c1.5,0,3.3-0.4,4.2-1L188.6,46.5z"/>
			</g>
		</g>
	</g>
	<path class="st0" d="M0,0v116.2h116.2V0H0z M42.6,63.5H23.2v12.9h19.4v3.9H23.2v16.5h-3.9V59.6h23.2V63.5z M96.8,96.8L23.2,28.8
		v19.7h-3.9v-29l73.6,68.1V67.8h3.9V96.8z M96.8,28.5c-2.8-3.2-7-5.3-11.6-5.3c-8.6,0-15.5,6.9-15.5,15.5c0,8.6,6.9,15.5,15.5,15.5
		c4.6,0,8.8-2,11.6-5.3v5.3c-3.2,2.4-7.3,3.9-11.6,3.9c-10.7,0-19.4-8.7-19.4-19.4c0-10.7,8.7-19.4,19.4-19.4
		c4.4,0,8.4,1.4,11.6,3.9V28.5z"/>
</g>
</svg>
