<svg id="레이어_1" data-name="레이어 1" xmlns="http://www.w3.org/2000/svg" viewBox="0 0 79.69 76.74"><defs><style>.cls-1{fill:#003f8f;}</style></defs><path class="cls-1" d="M997.82,422.48l-21.57-28v-16a8.46,8.46,0,0,0-2.41-16.57H946.27a8.46,8.46,0,0,0-2.41,16.57v16l-21.57,28a10,10,0,0,0-2.09,6.11,10.14,10.14,0,0,0,1,4.43,10,10,0,0,0,9,5.6h59.65a10,10,0,0,0,9-5.6A10.08,10.08,0,0,0,997.82,422.48Zm-51.55-54.6h27.57a2.46,2.46,0,0,1,0,4.92H946.27a2.46,2.46,0,0,1,0-4.92Zm47.22,62.49a4,4,0,0,1-3.61,2.25H930.23a4,4,0,0,1-3.61-2.25,4,4,0,0,1,.42-4.23l22.82-29.64V378.8h20.39v17.7l22.82,29.64A4,4,0,0,1,993.49,430.37Z" transform="translate(-920.2 -361.88)"/></svg>