<svg id="레이어_1" data-name="레이어 1" xmlns="http://www.w3.org/2000/svg" viewBox="0 0 74.03 79.7"><defs><style>.cls-1{fill:#003f8f;}</style></defs><path class="cls-1" d="M923.36,360.4v79.7h74V360.4Zm68,73.7h-62V366.4h62Z" transform="translate(-923.36 -360.4)"/><path class="cls-1" d="M986.71,371.25H934v21.33h52.67Zm-6,15.33H940v-9.33h40.67Z" transform="translate(-923.36 -360.4)"/><path class="cls-1" d="M950.93,395.58a8.06,8.06,0,1,0,8.05,8.05A8.06,8.06,0,0,0,950.93,395.58Zm0,10.11a2.06,2.06,0,1,1,2.05-2.06A2.06,2.06,0,0,1,950.93,405.69Z" transform="translate(-923.36 -360.4)"/><path class="cls-1" d="M969.82,414.48a8.05,8.05,0,1,0,8.06,8A8.06,8.06,0,0,0,969.82,414.48Zm0,10.1a2.05,2.05,0,1,1,2.06-2.05A2.05,2.05,0,0,1,969.82,424.58Z" transform="translate(-923.36 -360.4)"/><path class="cls-1" d="M950.93,414.48a8,8,0,1,0,8.05,8A8.06,8.06,0,0,0,950.93,414.48Zm0,10.1a2.05,2.05,0,1,1,2.05-2.05A2.05,2.05,0,0,1,950.93,424.58Z" transform="translate(-923.36 -360.4)"/><path class="cls-1" d="M969.82,395.58a8.06,8.06,0,1,0,8.06,8.05A8.06,8.06,0,0,0,969.82,395.58Zm0,10.11a2.06,2.06,0,1,1,2.06-2.06A2.06,2.06,0,0,1,969.82,405.69Z" transform="translate(-923.36 -360.4)"/></svg>