<svg id="레이어_1" data-name="레이어 1" xmlns="http://www.w3.org/2000/svg" viewBox="0 0 84.45 78.14"><defs><style>.cls-1{fill:#003f8f;}</style></defs><path class="cls-1" d="M964.12,391.57h19.73l18.75-30.4H967L960.43,372l-6.68-10.84h-35.6l18.75,30.4h20.48V395a22.28,22.28,0,1,0,6,0v-3.38ZM976.66,417a16.29,16.29,0,1,1-16.28-16.28A16.3,16.3,0,0,1,976.66,417Zm-6.29-49.86h21.48l-11.35,18.4H968.8L964,377.75Zm-41.47,0h21.5l11.35,18.4h-21.5Z" transform="translate(-918.15 -361.17)"/><path class="cls-1" d="M948.09,417a12.29,12.29,0,1,0,12.29-12.28A12.3,12.3,0,0,0,948.09,417Zm18.57,0a6.29,6.29,0,1,1-6.28-6.28A6.29,6.29,0,0,1,966.66,417Z" transform="translate(-918.15 -361.17)"/></svg>