<svg id="레이어_1" data-name="레이어 1" xmlns="http://www.w3.org/2000/svg" viewBox="0 0 79.7 78.83"><defs><style>.cls-1{fill:#003f8f;}</style></defs><path class="cls-1" d="M927.86,413.65h65a7.33,7.33,0,0,0,1.24-14.56,33.94,33.94,0,0,0-26.42-31.81v-6.45H953v6.45a34,34,0,0,0-26.42,31.81,7.33,7.33,0,0,0,1.24,14.56ZM959,366.83h2.67v20.45H959Zm-6,6.62v19.83h14.67V373.45A27.91,27.91,0,0,1,988.1,399H932.65A27.92,27.92,0,0,1,953,373.45ZM927.86,405h65a1.34,1.34,0,1,1,0,2.67h-65a1.34,1.34,0,0,1,0-2.67Z" transform="translate(-920.53 -360.83)"/><path class="cls-1" d="M920.53,439.66h79.7V418.32h-79.7Zm6-15.34h5.22V430h6v-5.67h6.81V430h6v-5.67h6.82V430h6v-5.67h6.81V430h6v-5.67H983V430h6v-5.67h5.23v9.34h-67.7Z" transform="translate(-920.53 -360.83)"/></svg>