<svg id="레이어_1" data-name="레이어 1" xmlns="http://www.w3.org/2000/svg" viewBox="0 0 79.7 77.95"><defs><style>.cls-1{fill:#003f8f;}</style></defs><path class="cls-1" d="M992.93,405.08a24.94,24.94,0,0,0-32.55-37.63,24.95,24.95,0,0,0-32.56,37.63l26.86,26.86a8.09,8.09,0,0,0,11.4,0l2.34-2.35v10.83H988V428.23h12.2V408.61H989.4Zm-60.87-4.24a18.94,18.94,0,0,1,26.28-27.28l2,1.89,2-1.89a18.94,18.94,0,0,1,26.27,27.28l-.66.66v-5.08H968.42v12.19H956.23V425Zm27.81,27.39h1A2.16,2.16,0,0,1,959.87,428.23Zm34.36-6H982v12.19h-7.61V422.23H962.23v-7.62h12.19V402.42H982v12.19h12.2Z" transform="translate(-920.53 -362.47)"/></svg>