<?xml version="1.0" encoding="UTF-8"?><svg id="_이어_1" xmlns="http://www.w3.org/2000/svg" viewBox="0 0 73 79.7"><defs><style>.cls-1{fill:#003d92;}</style></defs><path class="cls-1" d="M0,0V79.7H50.35c12.49,0,22.65-10.16,22.65-22.65V0H0ZM67,57.05c0,9.18-7.47,16.65-16.65,16.65H6V6h61V57.05Z"/><polygon class="cls-1" points="18.27 63.62 24.27 63.62 24.27 57.02 30.87 57.02 30.87 51.02 24.27 51.02 24.27 44.41 18.27 44.41 18.27 51.02 11.67 51.02 11.67 57.02 18.27 57.02 18.27 63.62"/><path class="cls-1" d="M44.69,45.27c-2.12,0-3.84,1.72-3.84,3.84s1.72,3.84,3.84,3.84,3.84-1.72,3.84-3.84-1.72-3.84-3.84-3.84Z"/><path class="cls-1" d="M54.5,55.08c-2.12,0-3.84,1.72-3.84,3.84s1.72,3.84,3.84,3.84,3.84-1.72,3.84-3.84-1.72-3.84-3.84-3.84Z"/><path class="cls-1" d="M60.17,12.18H12.83v20.67H60.17V12.18Zm-6,14.67H18.83v-8.67H54.17v8.67Z"/></svg>