<svg id="레이어_1" data-name="레이어 1" xmlns="http://www.w3.org/2000/svg" viewBox="0 0 76.35 79.7"><defs><style>.cls-1{fill:#003f8f;}</style></defs><path class="cls-1" d="M972.94,394.5l5.27-8.25a12.83,12.83,0,0,0,8.23-5.7,13,13,0,0,0-21.85-13.95,12.84,12.84,0,0,0-1.7,9.87l-11.51,18H922.2v3a38.38,38.38,0,0,0,14.27,29.76v13.06h47.81V427.26a38.38,38.38,0,0,0,14.27-29.76v-3Zm-3.47-17.19-.5-1.38a7,7,0,1,1,7.17,4.57l-1.47.14-8.85,13.86H958.5Zm10,46.06-1.22.9v10.05H942.47v-5.17h31.07v-6H941a32.37,32.37,0,0,1-12.62-22.65h64.06A32.37,32.37,0,0,1,979.5,423.37Z" transform="translate(-922.2 -360.61)"/></svg>