<svg id="레이어_1" data-name="레이어 1" xmlns="http://www.w3.org/2000/svg" viewBox="0 0 69.23 79.7"><defs><style>.cls-1{fill:#003f8f;}</style></defs><path class="cls-1" d="M960.38,360.4c-16.78,0-34.62,5.52-34.62,15.77v48.15c0,10.25,17.84,15.78,34.62,15.78S995,434.57,995,424.32V376.17C995,365.92,977.16,360.4,960.38,360.4Zm0,6c17.46,0,28.61,5.78,28.61,9.77s-11.15,9.77-28.61,9.77-28.62-5.79-28.62-9.77S942.91,366.4,960.38,366.4Zm0,67.7c-17.47,0-28.62-5.79-28.62-9.78v-6.76c6.65,4.34,17.84,6.62,28.62,6.62s22-2.28,28.61-6.62v6.76C989,428.31,977.84,434.1,960.38,434.1ZM989,408.41c0,4-11.15,9.77-28.61,9.77s-28.62-5.78-28.62-9.77v-6.76c6.65,4.34,17.84,6.62,28.62,6.62s22-2.28,28.61-6.62v6.76Zm0-15.91c0,4-11.15,9.77-28.61,9.77s-28.62-5.79-28.62-9.77v-7.18c6.65,4.34,17.84,6.62,28.62,6.62s22-2.28,28.61-6.62v7.18Z" transform="translate(-925.76 -360.4)"/></svg>