<svg id="레이어_1" data-name="레이어 1" xmlns="http://www.w3.org/2000/svg" viewBox="0 0 79.7 56.9"><defs><style>.cls-1{fill:#003f8f;}</style></defs><path class="cls-1" d="M986.58,401.4H934.17a13.65,13.65,0,0,0,0,27.29h52.41a13.65,13.65,0,1,0,0-27.29Zm0,21.29H934.17a7.65,7.65,0,0,1,0-15.29h52.41a7.65,7.65,0,1,1,0,15.29Z" transform="translate(-920.53 -371.8)"/><circle class="cls-1" cx="15.14" cy="43.25" r="3.04"/><circle class="cls-1" cx="27.5" cy="43.25" r="3.04"/><circle class="cls-1" cx="39.85" cy="43.25" r="3.04"/><circle class="cls-1" cx="52.21" cy="43.25" r="3.04"/><circle class="cls-1" cx="64.56" cy="43.25" r="3.04"/><path class="cls-1" d="M958.06,371.8H931.45v25.5h26.61Zm-6,19.5H937.45V377.8h4.3v5.25h6V377.8h4.31Z" transform="translate(-920.53 -371.8)"/><path class="cls-1" d="M989.31,371.8H962.7v25.5h26.61Zm-6,19.5H968.7V377.8H973v5.25h6V377.8h4.31Z" transform="translate(-920.53 -371.8)"/></svg>