<svg id="레이어_1" data-name="레이어 1" xmlns="http://www.w3.org/2000/svg" viewBox="0 0 79.7 73.13"><defs><style>.cls-1{fill:#003f8f;}</style></defs><path class="cls-1" d="M987.57,374.22V363.68H968.19v10.54H952.57V363.68H933.19v10.54H920.53v62.59h79.7V374.22Zm-13.38-4.54h7.38v4.54h-7.38Zm-35,0h7.38v4.54h-7.38Zm55,61.13h-67.7V380.22h67.7Z" transform="translate(-920.53 -363.68)"/><polygon class="cls-1" points="19.35 45.33 25.35 45.33 25.35 38.83 31.85 38.83 31.85 32.83 25.35 32.83 25.35 26.33 19.35 26.33 19.35 32.83 12.85 32.83 12.85 38.83 19.35 38.83 19.35 45.33"/><rect class="cls-1" x="47.85" y="32.83" width="19" height="6"/><rect class="cls-1" x="10.95" y="54.33" width="57.8" height="6"/></svg>