<svg xmlns="http://www.w3.org/2000/svg" xmlns:xlink="http://www.w3.org/1999/xlink" viewBox="0 0 977.84 559.82"><defs><style>.cls-1{fill:none;}.cls-2{fill:#c1defe;}.cls-3{isolation:isolate;}.cls-4{fill:#f2cd5d;}.cls-5{clip-path:url(#clip-path);}.cls-6{fill:#e6c258;}.cls-7{fill:#f2d680;}.cls-8{fill:#bcb469;}.cls-9{fill:#8c843d;}.cls-10{fill:#fff;}.cls-11{fill:#312113;}.cls-12{fill:#6987d0;}.cls-13{fill:#ff8376;}.cls-14{fill:#ede3dd;}.cls-15{fill:#5168a1;}.cls-16{fill:#904823;}.cls-17{fill:#e6a19b;}.cls-18{fill:#dbcac2;}.cls-19{mix-blend-mode:multiply;}.cls-20{clip-path:url(#clip-path-2);}.cls-21{fill:#80aad6;}</style><clipPath id="clip-path"><path class="cls-1" d="M26.52,559.25s-40.7-53.72-21.26-118.12S74.62,327.5,58.51,253c-19.12-88.49,25.41-160.82,105-153.5,143.31,13.2,228.41-84.3,277-94.34,144-29.74,170.33,79.05,248.08,89.66,167.8,22.87,219.67,96.1,213.66,236.54-2,46.2,126.52,138.72,52.74,227.92Z"/></clipPath><clipPath id="clip-path-2"><path class="cls-2" d="M596.32,81.57A50.44,50.44,0,1,0,545.89,132,50.43,50.43,0,0,0,596.32,81.57Z"/></clipPath></defs><g class="cls-3"><g id="레이어_1" data-name="레이어 1"><path class="cls-4" d="M26.52,559.25s-40.7-53.72-21.26-118.12S74.62,327.5,58.51,253c-19.12-88.49,25.66-163.13,105-153.5,132.87,16.14,228.41-84.3,277-94.34,144-29.74,170.33,79.05,248.08,89.66,167.8,22.87,219.67,96.1,213.66,236.54-2,46.2,126.52,138.72,52.74,227.92Z"/><g class="cls-5"><path class="cls-6" d="M518.82,101.56c-20-15.09-31.92-28.85-36.75-35V-13H477V66.59c-4.83,6.12-16.71,19.88-36.75,35h29.19a9.86,9.86,0,1,0,19.72,0h29.64Z"/><path class="cls-6" d="M642.55,133.37c-20-15.1-31.92-28.86-36.75-35V18.77h-5V98.39c-4.83,6.12-16.71,19.88-36.75,35h29.19a9.86,9.86,0,0,0,19.72,0h29.64Z"/><path class="cls-6" d="M797.28,67.41v200h200v-200ZM967.34,237.48H827.19V97.32H967.34Z"/><path class="cls-7" d="M551,531.19c-1.76-2-3.36-1.16-5.29-2.13-.2-.1-2.41-2.94-2.66-3.15a13,13,0,0,0-5-2.39,10.51,10.51,0,0,0-9.05,1.65c-3.35,2.69-3.95,7.32-1.14,10.17-3.31,2.33-3.37,5.85.26,7.16a4.76,4.76,0,0,0,3.32,7.14c-.81,2.67.78,5.37,4.13,5.81,4.83.65,8.1-3.49,8.92-7.74,4.74,1.19,7.22-4.2,7.76-8.58C552.49,536.51,552.84,533.37,551,531.19Z"/><path class="cls-7" d="M567.87,502.47c-1.76-2-3.36-1.16-5.29-2.12-.2-.1-2.4-2.94-2.66-3.14a13.15,13.15,0,0,0-5-2.41,10.52,10.52,0,0,0-9,1.66c-3.35,2.69-4,7.32-1.14,10.17-3.31,2.33-3.37,5.85.27,7.16a4.75,4.75,0,0,0,3.31,7.14c-.81,2.66.78,5.36,4.13,5.81,4.83.65,8.1-3.49,8.93-7.74,4.73,1.18,7.21-4.2,7.75-8.58C569.4,507.79,569.75,504.66,567.87,502.47Z"/><path class="cls-7" d="M581.94,547.63c2-3,1-5.61-.48-8.61s-2.75-7.89-5.42-9.93a15.35,15.35,0,0,0-1.76-1.14c3.05.11,7.12-1.68,9.59-3,2,5.26,8.49,7.27,13,2.81a9.11,9.11,0,0,0,2.35-8.33c-.47-2.26-1.32-2.56-.61-4.56.56-1.56,1.81-2.81,2.25-4.52a11.81,11.81,0,0,0-10.22-14.77,12.09,12.09,0,0,0-4.28.34c-2.61.67-4.87,1.17-7.52,1.7-2.45.49-3.79,1-3.74,3.93a1.1,1.1,0,0,0,.06.26c-4,1.44-7.33,4.76-7,9.38A6.19,6.19,0,0,0,570.4,516c1.8,1.25,3.66.71,5.55.56-3.23,2.56-7.4,6.82-4.79,10.06-3.51-1.17-7.38-1.21-8.69,2.26-4.61-.21-9.09.84-9.09,6.37,0,2,.47,4.95,2.13,6.27,1.49,1.19,2.27.78,3.42.16.48,2.78,1.48,5.69,3.73,7.44a6.27,6.27,0,0,0,3.41,1.25c1.22.23,1.3-.14,2.41.47,1.95,1.09,2.18,2.81,5.12,2.4S580.34,550.08,581.94,547.63Z"/><path class="cls-6" d="M601.1,559.71h-83l-10-110h103Zm-76.56-7h70.14l8.74-95.94H515.81Z"/><rect class="cls-6" x="507.96" y="467.48" width="42.56" height="2.34" transform="translate(-174.98 530.39) rotate(-46.54)"/><rect class="cls-6" x="507.64" y="475.78" width="65.43" height="2.34" transform="translate(-177.57 540.63) rotate(-46.5)"/><rect class="cls-6" x="505.61" y="484.8" width="90.33" height="2.35" transform="translate(-180.93 550.26) rotate(-46.44)"/><rect class="cls-6" x="503.46" y="493.89" width="115.38" height="2.35" transform="translate(-184.19 561.71) rotate(-46.53)"/><rect class="cls-6" x="505.05" y="512.04" width="119.67" height="2.34" transform="translate(-195.08 583.46) rotate(-47.54)"/><rect class="cls-6" x="532.02" y="524.3" width="85.38" height="2.34" transform="translate(-200.87 595.34) rotate(-47.58)"/><rect class="cls-6" x="559.35" y="536.24" width="50.96" height="2.35" transform="translate(-206.46 605.97) rotate(-47.53)"/><rect class="cls-6" x="589.49" y="447.37" width="2.34" height="42.56" transform="translate(-160.37 535.47) rotate(-43.51)"/><rect class="cls-6" x="578.37" y="444.23" width="2.35" height="65.43" transform="translate(-169.14 530.06) rotate(-43.51)"/><rect class="cls-6" x="567.95" y="440.81" width="2.35" height="90.33" transform="translate(-178.22 525.38) rotate(-43.51)"/><rect class="cls-6" x="557.58" y="437.37" width="2.34" height="115.38" transform="translate(-187.33 520.73) rotate(-43.51)"/><rect class="cls-6" x="553.84" y="453.38" width="2.34" height="119.67" transform="translate(-200.91 509.8) rotate(-42.5)"/><rect class="cls-6" x="544.01" y="482.78" width="2.34" height="85.38" transform="translate(-211.77 506.37) rotate(-42.5)"/><rect class="cls-6" x="533.9" y="511.93" width="2.34" height="50.96" transform="translate(-222.49 502.65) rotate(-42.5)"/><path class="cls-6" d="M232.12,11.91V125.46H345.68V11.91Zm96.57,96.57H249.11V28.89h79.58Z"/><path class="cls-6" d="M232.12,148.63V262.18H345.68V148.63Zm96.57,96.57H249.11V165.61h79.58Z"/></g><path class="cls-8" d="M108.4,300.34c31.52-28.5,72.43,46.15,68.27,75.49l-15.65-.1C145.86,368.29,82.87,323.42,108.4,300.34Z"/><path class="cls-9" d="M168.46,376.07c-22.92-42.6-60.19-74.82-60.56-75.14l1-1.17c.38.32,37.86,32.72,60.92,75.58Z"/><path class="cls-9" d="M150.29,346.88c-1.11-.12-27.31-3.05-35.27-6.09l.55-1.44c7.78,3,34.62,6,34.89,6Z"/><path class="cls-9" d="M131.47,321.71l-1.43-.59c3.71-9,4.53-23.64,4.54-23.78l1.54.08C136.09,298,135.28,312.42,131.47,321.71Z"/><path d="M163.14,327.72c9.49,16.89,15.21,36.22,13.53,48.11C154.92,356.6,159.65,330.83,163.14,327.72Z"/><path class="cls-8" d="M188.87,280.87c27.88-11.37,19,58-5.62,95l-11.39-.07C166.24,366.47,166.3,290.07,188.87,280.87Z"/><path class="cls-9" d="M177.42,376l-1.51-.34c4.51-20.56,16.81-86.91,16.94-87.58l1.51.28C194.24,289,181.94,355.41,177.42,376Z"/><rect class="cls-9" x="179.51" y="346.05" width="17.22" height="1.55" transform="translate(-189.59 232.76) rotate(-44.72)"/><rect class="cls-9" x="178.61" y="312.22" width="1.54" height="16.91" transform="translate(-185.89 280.83) rotate(-54.55)"/><path class="cls-10" d="M124.75,375.59l-.07,9.57a63.52,63.52,0,0,0,7.9,31.09l2.08,3.78L149.3,559l40.19.27L204,420.49l2.13-3.75a63.39,63.39,0,0,0,8.31-31l.07-9.57Z"/><rect class="cls-11" x="157.79" y="366.47" width="1.54" height="66.86" transform="translate(-242.39 555.78) rotate(-89.62)"/><rect class="cls-11" x="191.64" y="408.35" width="1.54" height="23.93" transform="translate(-229.17 609.91) rotate(-89.62)"/><path class="cls-11" d="M150.79,559.82l-2.18,0-14.7-139.54-2-3.64a64.44,64.44,0,0,1-8-31.46l.07-10.35,90.52.61V377l-89-.59-.06,8.79a62.83,62.83,0,0,0,7.81,30.72l2.17,4.07L150,558.27h.8Z"/><path class="cls-11" d="M193,376.1l-1.44-.56c5.81-14.8,28-21.91,28.91-22.2l.46,1.47C220.69,354.88,198.53,362,193,376.1Z"/><path class="cls-11" d="M143.31,375.63c-.1-.21-10.57-21-25.36-24.3l.33-1.5c15.52,3.45,26,24.23,26.41,25.12Z"/><path class="cls-11" d="M143.7,376.49c-.39-.25-40.09-24.66-68.86-14.63l-.51-1.46c29.48-10.26,69.79,14.53,70.19,14.78Z"/><path class="cls-11" d="M166.74,340.76l-1.54-.13c0-.38,2.84-38-15.06-55l1.07-1.12C169.64,302,166.86,339.18,166.74,340.76Z"/><path class="cls-11" d="M421.82,247.18H98.66V163.94H421.82Zm-322.16-1H420.82V164.94H99.66ZM392,239.4H340l13.87-4.19-16-52.76-16.16,4.89L337.5,239.4H321.25V183.71H304.36V239.4h-3V199.58H286.08V239.4H256.52v-2.23h-4l0-12.54h4v-1.87H226.28v-2.15h-3.36l0-12.53h3.33v-2.45l15.3.06h4.3v-.29h3.37v-1.87h-3.37l0-12.53h3.34v-1.88H178l0,17.08H155l0,16.34,15.68.06-.05,16.8H126.42V171.72H392Zm-45.25-1H391V172.72H127.42V238.4H169.6l.05-14.81L154,223.53l0-18.33h22.92l0-17.08h73.27V192h-3.34l0,10.53h3.37v3.87h-3.38v.29h-4.79l-14.8-.05v2.44H224l0,10.53h3.36v2.15h30.24v3.87h-4l0,10.54h4v2.23h27.56V198.58h17.28V238.4h1V182.71h18.89v3.43l16.33-4.94,16.53,54.67Zm-24.51,0h13.9l-13.9-46Z"/><polygon class="cls-11" points="238.46 191.86 238.41 209.19 173.76 208.96 173.81 191.62 238.46 191.86"/><polygon class="cls-10" points="242.75 191.86 242.71 209.19 178.06 208.96 178.1 191.62 242.75 191.86"/><rect class="cls-11" x="173.81" y="191.62" width="72.27" height="2.87" transform="translate(419.89 386.12) rotate(180)"/><rect class="cls-11" x="173.81" y="206.03" width="72.27" height="2.87" transform="translate(419.89 414.93) rotate(180)"/><polygon class="cls-12" points="215.49 208.94 215.45 226.27 150.8 226.04 150.84 208.71 215.49 208.94"/><polygon class="cls-10" points="219.79 208.94 219.74 226.27 155.09 226.04 155.14 208.71 219.79 208.94"/><rect class="cls-12" x="150.85" y="208.7" width="72.27" height="2.87" transform="translate(373.96 420.28) rotate(180)"/><rect class="cls-12" x="150.85" y="223.11" width="72.27" height="2.87" transform="translate(373.96 449.09) rotate(180)"/><rect class="cls-13" x="196.65" y="195.19" width="17.33" height="77.71" transform="translate(-29.35 438.66) rotate(-89.83)"/><rect class="cls-10" x="201.81" y="195.19" width="17.33" height="77.71" transform="matrix(0, -1, 1, 0, -24.2, 443.83)"/><rect class="cls-13" x="166.49" y="225.26" width="86.87" height="2.87" transform="translate(419.84 453.4) rotate(180)"/><rect class="cls-13" x="166.49" y="239.67" width="86.87" height="2.87" transform="translate(419.84 482.21) rotate(180)"/><rect class="cls-11" x="95.49" y="167.44" width="27.76" height="82.23"/><rect class="cls-11" x="397.31" y="167.44" width="20.35" height="82.23"/><rect class="cls-14" x="387.84" y="167.44" width="18.29" height="82.23"/><rect class="cls-14" x="95.49" y="167.44" width="18.29" height="82.23"/><rect class="cls-14" x="95.49" y="167.44" width="310.64" height="7.78" transform="translate(501.62 342.66) rotate(180)"/><rect class="cls-12" x="303.4" y="186.21" width="14.68" height="56.12" transform="translate(621.49 428.54) rotate(180)"/><rect class="cls-10" x="300.2" y="186.21" width="3.21" height="56.12"/><rect class="cls-11" x="328.34" y="185.75" width="14.68" height="56.12" transform="translate(718.88 321.29) rotate(163.17)"/><rect class="cls-10" x="325.52" y="188.34" width="3.21" height="56.12" transform="translate(-48.68 104.11) rotate(-16.85)"/><rect class="cls-13" x="284.83" y="202.08" width="13.36" height="40.25" transform="translate(583.03 444.4) rotate(180)"/><rect class="cls-10" x="281.92" y="202.08" width="2.92" height="40.25"/><rect class="cls-14" x="95.49" y="241.9" width="310.64" height="7.78" transform="translate(501.62 491.58) rotate(180)"/><path class="cls-10" d="M767.3,436.83h2.9a3.59,3.59,0,0,1,3.59,3.59V545.67a0,0,0,0,1,0,0H763.71a0,0,0,0,1,0,0V440.42A3.59,3.59,0,0,1,767.3,436.83Z" transform="translate(1537.5 982.5) rotate(180)"/><path class="cls-10" d="M754.87,430.68h27.76a3.53,3.53,0,0,1,3.22,2.06l.13.28a3.55,3.55,0,0,1-3.22,5h-28a3.55,3.55,0,0,1-3.22-5l.13-.28A3.54,3.54,0,0,1,754.87,430.68Z"/><path class="cls-11" d="M751.22,436.77a4.17,4.17,0,0,1-.28-4l.13-.27a4.18,4.18,0,0,1,3.8-2.44h27.76a4.2,4.2,0,0,1,3.81,2.44l.12.27a4.19,4.19,0,0,1-3.8,5.95h-28A4.16,4.16,0,0,1,751.22,436.77Zm3.65-5.45a2.91,2.91,0,0,0-2.64,1.69l-.13.28a2.91,2.91,0,0,0,2.64,4.13h28a2.91,2.91,0,0,0,2.64-4.13l-.13-.28a2.91,2.91,0,0,0-2.64-1.69Z"/><path class="cls-12" d="M858,368.22c-5.13,29.88-21.48,64.62-90,64.62s-93.93-26.84-93.93-33.9,27.24,3.15,42.2-14.95-9.42-83.56-9.42-112.51,79.8-27.55,103.11-27.55c12,0,33.35-1.75,47.31,21.19C870.45,286.78,863.63,335.27,858,368.22Z"/><path class="cls-15" d="M834.41,386.62c-.85-9.32-13.58-11-16.42-19.8-3.07-9.53,5.49-20.16,4.49-30.06-1-10.19-6.36-10.52-7.34-20.74-.94-9.77,10-15.58,7-25-2.48-7.69-11.51-46.59-44.58-46.59-31.48,1.4-70.67,6.77-70.67,27.07,0,28.95,24.37,94.42,9.42,112.51s-42.2,7.89-42.2,14.95,25.43,33.9,93.93,33.9C772.79,432.84,835.18,395.16,834.41,386.62Z"/><path class="cls-11" d="M762.34,416a125.39,125.39,0,0,0,38.41-5.58c20.71-6.64,30.41-17,30.51-17.08l-.94-.86c-.1.1-9.63,10.23-30.05,16.75-18.87,6-51.16,10.13-97.82-4.57l-.38,1.22C725.8,413.39,745.85,416,762.34,416Z"/><path class="cls-11" d="M819.76,364.37a3.85,3.85,0,1,1,3.85,3.85A3.86,3.86,0,0,1,819.76,364.37Zm1.28,0a2.57,2.57,0,1,0,2.57-2.57A2.58,2.58,0,0,0,821,364.37Z"/><path class="cls-11" d="M781.51,364.37a3.85,3.85,0,1,1,3.85,3.85A3.86,3.86,0,0,1,781.51,364.37Zm1.28,0a2.57,2.57,0,1,0,2.57-2.57A2.58,2.58,0,0,0,782.79,364.37Z"/><path class="cls-11" d="M743.26,364.37a3.85,3.85,0,1,1,3.85,3.85A3.85,3.85,0,0,1,743.26,364.37Zm1.28,0a2.57,2.57,0,1,0,2.57-2.57A2.58,2.58,0,0,0,744.54,364.37Z"/><path class="cls-11" d="M762.15,382.55A3.85,3.85,0,1,1,766,386.4,3.84,3.84,0,0,1,762.15,382.55Zm1.28,0A2.57,2.57,0,1,0,766,380,2.57,2.57,0,0,0,763.43,382.55Z"/><path class="cls-11" d="M803.17,340.86A3.85,3.85,0,1,1,807,344.7,3.85,3.85,0,0,1,803.17,340.86Zm1.28,0a2.57,2.57,0,1,0,2.56-2.57A2.56,2.56,0,0,0,804.45,340.86Z"/><path class="cls-11" d="M843.65,340.86a3.85,3.85,0,1,1,3.85,3.84A3.86,3.86,0,0,1,843.65,340.86Zm1.28,0a2.57,2.57,0,1,0,2.57-2.57A2.57,2.57,0,0,0,844.93,340.86Z"/><path class="cls-11" d="M764.91,340.86a3.85,3.85,0,1,1,3.85,3.84A3.86,3.86,0,0,1,764.91,340.86Zm1.28,0a2.57,2.57,0,1,0,2.57-2.57A2.57,2.57,0,0,0,766.19,340.86Z"/><path class="cls-11" d="M726.66,340.86a3.85,3.85,0,1,1,3.85,3.84A3.86,3.86,0,0,1,726.66,340.86Zm1.28,0a2.57,2.57,0,1,0,2.57-2.57A2.57,2.57,0,0,0,727.94,340.86Z"/><path class="cls-11" d="M819.76,317.35a3.85,3.85,0,1,1,3.85,3.85A3.86,3.86,0,0,1,819.76,317.35Zm1.28,0a2.57,2.57,0,1,0,2.57-2.57A2.58,2.58,0,0,0,821,317.35Z"/><path class="cls-11" d="M781.51,317.35a3.85,3.85,0,1,1,3.85,3.85A3.86,3.86,0,0,1,781.51,317.35Zm1.28,0a2.57,2.57,0,1,0,2.57-2.57A2.58,2.58,0,0,0,782.79,317.35Z"/><path class="cls-11" d="M743.26,317.35a3.85,3.85,0,1,1,3.85,3.85A3.85,3.85,0,0,1,743.26,317.35Zm1.28,0a2.57,2.57,0,1,0,2.57-2.57A2.58,2.58,0,0,0,744.54,317.35Z"/><path class="cls-11" d="M803.17,293.84a3.85,3.85,0,1,1,3.84,3.85A3.85,3.85,0,0,1,803.17,293.84Zm1.28,0a2.57,2.57,0,1,0,2.56-2.57A2.57,2.57,0,0,0,804.45,293.84Z"/><path class="cls-11" d="M843.65,293.84a3.85,3.85,0,1,1,3.85,3.85A3.86,3.86,0,0,1,843.65,293.84Zm1.28,0a2.57,2.57,0,1,0,2.57-2.57A2.58,2.58,0,0,0,844.93,293.84Z"/><path class="cls-11" d="M764.91,293.84a3.85,3.85,0,1,1,3.85,3.85A3.86,3.86,0,0,1,764.91,293.84Zm1.28,0a2.57,2.57,0,1,0,2.57-2.57A2.58,2.58,0,0,0,766.19,293.84Z"/><path class="cls-11" d="M726.66,293.84a3.85,3.85,0,1,1,3.85,3.85A3.86,3.86,0,0,1,726.66,293.84Zm1.28,0a2.57,2.57,0,1,0,2.57-2.57A2.58,2.58,0,0,0,727.94,293.84Z"/><path class="cls-11" d="M819.76,264.8a3.85,3.85,0,1,1,3.85,3.84A3.86,3.86,0,0,1,819.76,264.8Zm1.28,0a2.57,2.57,0,1,0,2.57-2.57A2.57,2.57,0,0,0,821,264.8Z"/><path class="cls-11" d="M781.51,264.8a3.85,3.85,0,1,1,3.85,3.84A3.86,3.86,0,0,1,781.51,264.8Zm1.28,0a2.57,2.57,0,1,0,2.57-2.57A2.57,2.57,0,0,0,782.79,264.8Z"/><path class="cls-11" d="M743.26,264.8a3.85,3.85,0,1,1,3.85,3.84A3.85,3.85,0,0,1,743.26,264.8Zm1.28,0a2.57,2.57,0,1,0,2.57-2.57A2.57,2.57,0,0,0,744.54,264.8Z"/><rect class="cls-11" x="765.82" y="438.26" width="1.28" height="102.75"/><path class="cls-11" d="M742.64,556.74h1.28v-7.16a7.87,7.87,0,0,1,7.86-7.86H785.7a7.87,7.87,0,0,1,7.86,7.86v6h1.28v-6a9.14,9.14,0,0,0-9.14-9.13H751.78a9.14,9.14,0,0,0-9.14,9.13Z"/><path class="cls-11" d="M729.6,556.74h1.27v-7.16a7.87,7.87,0,0,1,7.86-7.86h60a7.87,7.87,0,0,1,7.85,7.86v6h1.28v-6a9.13,9.13,0,0,0-9.13-9.13h-60a9.13,9.13,0,0,0-9.13,9.13Z"/><path class="cls-11" d="M739.05,555.49a4.25,4.25,0,1,0,4.25-4.24A4.25,4.25,0,0,0,739.05,555.49Z"/><path class="cls-11" d="M726.22,555.49a4.25,4.25,0,1,0,4.25-4.24A4.25,4.25,0,0,0,726.22,555.49Z"/><path class="cls-11" d="M803.07,555.49a4.25,4.25,0,1,0,4.25-4.24A4.25,4.25,0,0,0,803.07,555.49Z"/><path class="cls-11" d="M789.68,555.49a4.25,4.25,0,1,0,4.25-4.24A4.25,4.25,0,0,0,789.68,555.49Z"/><path d="M626,261c-2.2,1.31,2.5,13.22,10.49,26.6s16.26,23.15,18.45,21.84-2.5-13.22-10.49-26.6S628.2,259.66,626,261Z"/><path class="cls-16" d="M700.61,213.05c7.2,5,13.92,20.66,4.94,37.11s-25.88,39-50.29,59c0,0-9.4-28.66-28.9-48.13,0,0,22.18-31.28,36.53-41.68S692.68,207.52,700.61,213.05Z"/><path class="cls-17" d="M569.88,259.35a25,25,0,0,1,2.82-9s45.47,24,61.47,31.14c5.11,2.29,8.3,30.3-14.89,25.31-18.29-3.93-33.91-35.63-48.51-40.65C568,265.25,569.8,260.23,569.88,259.35Z"/><path class="cls-17" d="M610.67,295.41a182.74,182.74,0,0,0,15.26,11.71c6.75,4.41,23-13.11,23-13.11s-7.73-16.16-16-25.69l-4.23,5Z"/><path class="cls-11" d="M544.55,240.57s-11.24,6.77-9.66,11.8,6.82-2.31,6.82-2.31-3.28,5.28-1.56,6.25,5.65-.61,7.57-3.75,8-8.19,6.6-9.39S550.73,238,544.55,240.57Z"/><path class="cls-17" d="M583.67,261.4s-5-3.79-14.19-15-21.4-12.64-32.38-9-5.54,5.31-2.65,5.41,17.54-2.81,18.95.88c0,0-.34,3.51-5.22,2.72s-9.07-2.12-11.87,0,.55,2.85,2.54,3.79,7.67,2.34,10,3.9,7.09,8.17,12.54,8.78a37.37,37.37,0,0,1,8.4,2.85C573,267.56,583.67,261.4,583.67,261.4Z"/><polygon class="cls-17" points="666.05 518.71 645.22 527.51 628.54 502.71 654.62 491.68 666.05 518.71"/><path class="cls-14" d="M638.59,519.8s4.69-4,12-.44,8.23-1.83,9.51-3.15a8.07,8.07,0,0,1,6.08-2.57s6.73,25.68,4.82,45.66H601.81s-2.15-6.95,3.83-10.17,32.2-10.79,35.68-17.57S638.59,519.8,638.59,519.8Z"/><path class="cls-11" d="M657.63,554.4h1.28c0-12.67,11.05-16.72,11.52-16.88l-.42-1.21C669.89,536.36,657.63,540.81,657.63,554.4Z"/><path class="cls-11" d="M671.46,553c.07,2.49-.36,4.68-.44,6.33H601.81a10.43,10.43,0,0,1,.27-6.33Z"/><path class="cls-11" d="M635.05,543.9l.14,0c.65-.12,15.78-3,17.37-9.76s-3.87-13.11-4.1-13.38l-1,.83c0,.06,5.25,6.23,3.82,12.25-1.33,5.64-14.68,8.46-16.21,8.77l-8-2.19-.34,1.23Z"/><rect class="cls-11" x="638.21" y="534.1" width="1.28" height="7.64" transform="translate(-77.24 967.68) rotate(-71.07)"/><rect class="cls-11" x="644.16" y="529.75" width="1.28" height="7.64" transform="translate(-69.1 970.39) rotate(-71.07)"/><path class="cls-11" d="M571.87,420.69c1.91,15.63,7.37,42.81,12.55,63.11s12.07,49.28,12.07,49.28,44.6-.36,68.86-30c0,0-22.12-60.75-27.48-78.95S568.44,392.69,571.87,420.69Z"/><path class="cls-11" d="M710.13,409.94c-16.44-.55-92,43.41-122.3,30.64-16.27-6.86-26.31-40.05-4.75-57.07,14.12-11.15,80.12-33,96.54-35.79S739,410.91,710.13,409.94Z"/><path d="M656.54,510.55l1.2-.43c-3.06-8.56-6.27-16.91-9.37-25-10-26-18.56-48.38-14.33-57a6.21,6.21,0,0,1,4-3.36c15.08-4.5,69.3-21.24,69.85-21.41l-.38-1.22c-.55.16-54.76,16.91-69.84,21.4a7.51,7.51,0,0,0-4.79,4c-4.49,9.11,3.79,30.69,14.28,58C650.27,493.66,653.48,502,656.54,510.55Z"/><path d="M598.1,529.17c0-.25,4-24.65,3.22-45.09l-1.28.05c.79,20.31-3.16,44.59-3.2,44.83Z"/><polygon class="cls-17" points="736.61 518.71 715.78 527.51 699.09 502.71 725.18 491.68 736.61 518.71"/><path class="cls-14" d="M709.15,519.8s4.69-4,12-.44,8.24-1.83,9.52-3.15a8.05,8.05,0,0,1,6.08-2.57s6.73,25.68,4.82,45.66H672.36s-2.14-6.95,3.84-10.17,32.2-10.79,35.68-17.57S709.15,519.8,709.15,519.8Z"/><path class="cls-11" d="M728.19,554.4h1.28c0-12.69,11.41-16.84,11.52-16.88l-.42-1.21C740.44,536.36,728.19,540.81,728.19,554.4Z"/><path class="cls-11" d="M742,553c.07,2.49-.37,4.68-.44,6.33H672.36a10.47,10.47,0,0,1,.28-6.33Z"/><path class="cls-11" d="M705.61,543.9l.14,0c.64-.12,15.77-3,17.37-9.76S719.25,521,719,520.74l-1,.83c.05.06,5.24,6.23,3.82,12.25-1.33,5.64-14.68,8.46-16.21,8.77l-8-2.19-.34,1.23Z"/><rect class="cls-11" x="708.76" y="534.1" width="1.28" height="7.64" transform="translate(-29.58 1034.42) rotate(-71.07)"/><rect class="cls-11" x="714.72" y="529.75" width="1.28" height="7.64" transform="translate(-21.43 1037.13) rotate(-71.07)"/><path class="cls-11" d="M642.42,420.69c1.92,15.63,7.38,42.81,12.56,63.11S667,533.08,667,533.08s44.6-.36,68.87-30c0,0-22.13-60.75-27.48-78.95S639,392.69,642.42,420.69Z"/><path class="cls-11" d="M769.28,411.6c-15.62,3.87-80.57,41.75-110.89,29-16.27-6.86-26.31-40.05-4.75-57.07,14.12-11.15,65.78-35.79,117.78-35.79C805.49,347.72,796.75,404.81,769.28,411.6Z"/><path d="M727.1,510.55l1.2-.43c-3.07-8.56-6.27-16.91-9.37-25-10-26-18.57-48.38-14.33-57a6.19,6.19,0,0,1,4-3.36c15.11-4.51,69.72-27.61,70.27-27.84l-.5-1.18c-.54.23-55.1,23.31-70.14,27.79a7.56,7.56,0,0,0-4.8,4c-4.48,9.11,3.8,30.69,14.28,58C720.83,493.66,724,502,727.1,510.55Z"/><path d="M700.32,489.53l1.06-.72c-.11-.16-10.63-15.68-22.29-25.69l-.83,1C689.79,474,700.21,489.37,700.32,489.53Z"/><path d="M641.66,401.61l1.28,0c-.42-21.5,44.63-36.91,45.09-37.07l-.41-1.21C685.73,364,641.22,379.18,641.66,401.61Z"/><path class="cls-16" d="M655.75,250.22c-3.16,28,5.56,91.64-1.31,104.06,0,0,14.3,13.56,40.36,9,27.43-4.82,72.85,38.26,104.66,33,0-49-23.9-169.89-54.35-183.9C713.92,198,661.49,199.41,655.75,250.22Z"/><path class="cls-17" d="M687.09,186.39l5.1,22.69c1.35,2,8.54,12.58,28.66-4.69l-8.74-32.82A241.33,241.33,0,0,1,687.09,186.39Z"/><path class="cls-11" d="M691.36,205.25c12.54,7.08,21.36-8.29,20.83-16.87-11.62,9.92-19.93,5.69-22.55,9.34Z"/><path class="cls-17" d="M686.16,199.33c7.37,2.13,23.74-3.91,28.7-9.75,1.77-2.09,3.24-8.57,3.19-11.93-.2-10.54,0-20-6.75-24.85-2.82-2-11-3.44-14.12-3.7-10.15-.83-14.32,6.3-17.27,16C676.6,176.07,673.18,195.58,686.16,199.33Z"/><path class="cls-11" d="M686.1,181.56l.67-1.09c-1.33-.82-3.3-2.42-3.32-3.25,0-.06,0-.16.2-.31,4.52-3.18,5.06-9,5.09-9.27v-.15l-.06-.15a6.63,6.63,0,0,0-6.34-3.77l0,1.28a5.26,5.26,0,0,1,5.05,2.84c-.12.93-.89,5.62-4.53,8.17a1.62,1.62,0,0,0-.74,1.4C682.22,179.08,685.45,181.16,686.1,181.56Z"/><path class="cls-17" d="M712.35,176.94a7.17,7.17,0,1,0,8.91-4.83A7.17,7.17,0,0,0,712.35,176.94Z"/><path class="cls-11" d="M718.34,184a3.78,3.78,0,0,0,3-.19l-.53-1.16s-1.66.71-2.19,0c-.1-.13,0-.33.54-.92s1.45-1.67.74-2.89a6.66,6.66,0,0,0-.61-.82c-.31-.36-.72-.86-.67-1.11s.21-.3.51-.47a2.73,2.73,0,0,1,2.89.24l.79-1a4,4,0,0,0-4.31-.34,2,2,0,0,0-1.14,1.35,2.77,2.77,0,0,0,.94,2.16,5.41,5.41,0,0,1,.5.65c.21.36,0,.66-.61,1.39s-1.32,1.52-.62,2.51A2,2,0,0,0,718.34,184Z"/><path class="cls-11" d="M683.94,186.8a18.13,18.13,0,0,0,9.68,2l-.15-1.27c-5.1.61-10.19-2.53-10.24-2.56l-.68,1.09C682.62,186.09,683.12,186.4,683.94,186.8Z"/><path class="cls-11" d="M699.13,173.45a2.47,2.47,0,0,1-.06.29,1.9,1.9,0,1,1-3.65-1.08,2,2,0,0,1,.74-1A12.33,12.33,0,0,0,699.13,173.45Z"/><path class="cls-11" d="M685.91,169.54a1.5,1.5,0,0,1-.06.29,1.9,1.9,0,0,1-3.64-1.08,1.84,1.84,0,0,1,.73-1A13.23,13.23,0,0,0,685.91,169.54Z"/><path class="cls-11" d="M695,168.8s2.31-1.88,7.06,2.67l.88-.92c-5.68-5.45-8.67-2.81-8.8-2.69l.87.94-.43-.47Z"/><path class="cls-11" d="M692.64,229.37v-1.28c-8.26,0-12.55-7.79-12.59-7.87l-1.13.6C679.11,221.17,683.62,229.37,692.64,229.37Z"/><path d="M691.68,355.76c.27,0,26.69-4.37,32.15-28.13l-1.25-.28c-5.27,22.92-30.84,27.1-31.09,27.14Z"/><path class="cls-11" d="M712.51,168.62l-.51,8.53a9.73,9.73,0,0,0,2.67.64c2.41-8.17,8.78-4.63,8.78-4.63,9-7.7,5-26-2.3-27.49,0,0-2.89-11.31-19.27-11.47s-17.64,9.62-17.64,9.62-4.73.5-6.28,7.92,1.12,16.49,1.12,16.49l1.86-6.37s15.24,2.37,25.69-4.58C706.22,165.91,712.51,168.62,712.51,168.62Z"/><path class="cls-16" d="M747,218.9c7.72,4.16,17.65,15.34,10.61,32.71s-26.87,55-48.84,77.65c0,0-8.85-30.94-33.22-52.74,0,0,22.57-38.82,35.63-50.79S738.45,214.31,747,218.9Z"/><path d="M715.75,295.23c6.76-.7,17.52-4,24.06-16.92l-1.14-.58A28.63,28.63,0,0,1,709.8,294l-.2,1.26A26.7,26.7,0,0,0,715.75,295.23Z"/><path d="M675.89,274.82c-2.31,1.37,3.1,14.76,12.08,29.9S706.09,331,708.4,329.67s-3.09-14.76-12.07-29.9S678.2,273.45,675.89,274.82Z"/><path class="cls-17" d="M641.1,315s-9.41,5.26-16.62.95c-7.74-4.64-25.68-1.34-25.68-1.34s1.39-9.45,16.77-12.69a170.45,170.45,0,0,0,24.1-6.63Z"/><path class="cls-17" d="M598.92,313.83a208,208,0,0,0-1,24.63c.06,1.54,2.91,1.51,3.57.11,2.59-5.44,1.59-20.76,1.59-20.76s3.38,14.35,5.25,14.62c1.07.16,6.07-1,10.15-2,2.93-.72,2.53-1.56,2.41-4.57-.15-3.82.34-6.82.78-7.16.89-.67,8.65-1.05,10.26-1.72,0,0-9.37-11.94-14-12.5C612.55,303.83,598.92,313.83,598.92,313.83Z"/><path class="cls-11" d="M617,330.84l-2.62-14.15A108.39,108.39,0,0,0,617,330.84Z"/><path class="cls-11" d="M612.75,331.82l-4.37-16.44S610.71,326.86,612.75,331.82Z"/><path class="cls-17" d="M626.73,300.12l-4.4,18c13.13,1.94,47.13-6.85,67.14-10.88,3.68-.75,7-1.49,9.86-2.21q-1.43-2.58-3-5.25c-6.39-10.8-12.89-19.6-16.92-23.24l-3.74,2C654.69,289.9,626.73,300.12,626.73,300.12Z"/><path d="M708.83,330.15c.48-.43,48.4-43.4,47.16-78.85l-1.28,0c1.22,34.86-46.25,77.43-46.73,77.85Z"/><path class="cls-11" d="M695.11,173.38a2.13,2.13,0,1,0,2.13-2.13A2.13,2.13,0,0,0,695.11,173.38Z"/><path class="cls-11" d="M681.65,169.47a2.13,2.13,0,1,0,2.13-2.13A2.13,2.13,0,0,0,681.65,169.47Z"/><path d="M654.55,269.76c0-.17-.35-17.15,2.05-27.49l1,.23c-2.38,10.21-2,27.07-2,27.23Z"/><polygon class="cls-18" points="386.25 355.22 386.25 559.27 400.66 559.27 400.66 531.54 532.68 531.83 532.68 355.22 386.25 355.22"/><g class="cls-19"><path class="cls-11" d="M532.68,355.22v31.17H415.57L387.9,358.73a7.91,7.91,0,0,0-1.65-1.28v-2.23Z"/></g><polygon class="cls-18" points="361.49 361.92 361.49 347.45 765.93 347.45 765.54 361.92 361.49 361.92"/><polygon points="764.59 362.56 360.84 362.56 360.84 346.81 526.26 346.81 526.26 348.1 362.13 348.1 362.13 361.28 764.59 361.28 764.59 362.56"/><rect class="cls-14" x="708.81" y="362.57" width="15.38" height="196.65" transform="translate(1433.01 921.78) rotate(180)"/><polygon class="cls-18" points="724.2 362.56 724.2 380.16 716.05 380.16 716.05 559.22 708.81 559.22 708.81 362.56 724.2 362.56"/><rect x="715.4" y="380.16" width="1.3" height="179.05"/><rect x="385.6" y="378.07" width="1.29" height="122.2"/><polygon points="459.47 532.47 533.33 532.47 533.33 448.3 532.04 448.3 532.04 531.18 459.47 531.18 459.47 532.47"/><rect x="400.02" y="535.11" width="1.29" height="20.09"/><path class="cls-14" d="M644.74,327.44H491a8,8,0,0,1-8-7.18l-9.72-92.84a8,8,0,0,1,8-8.85H635a8,8,0,0,1,8,7.18l9.72,92.84A8,8,0,0,1,644.74,327.44Z"/><path class="cls-11" d="M644.73,324.63H491l-.52,0,.13-1.33.39,0H644.73a3.86,3.86,0,0,0,3.85-4.27l-9.72-92.85a3.86,3.86,0,0,0-3.85-3.46H529.81v-1.34H635a5.2,5.2,0,0,1,5.18,4.66l9.72,92.85a5.2,5.2,0,0,1-5.18,5.74Z"/><path class="cls-10" d="M533.3,347.46h26.92L570,296.61a13.22,13.22,0,0,0-13-15.71h0a13.23,13.23,0,0,0-13,10.72Z"/><path class="cls-11" d="M560.72,336.12l-1.31-.25L567.05,296A10.23,10.23,0,1,0,547,292.19L542.39,316l-1.32-.26,4.57-23.79a11.57,11.57,0,0,1,22.73,4.37Z"/><rect class="cls-10" x="539.08" y="342.92" width="71.29" height="4.54" transform="translate(1149.46 690.38) rotate(180)"/><rect class="cls-11" x="551.9" y="342.25" width="58.48" height="1.34"/><path class="cls-11" d="M532.31,253.58c0,3.92,10.66,7.1,23.81,7.1s23.82-3.18,23.82-7.1-10.66-7.1-23.82-7.1S532.31,249.66,532.31,253.58Z"/><polygon class="cls-13" points="446.1 346.74 418.33 346.74 415.41 300.11 449.03 300.11 446.1 346.74"/><path class="cls-10" d="M448.6,295.33H415.83a1.45,1.45,0,0,0-1.16.58l-1.41,1.87a1.46,1.46,0,0,0,1.16,2.33H450a1.46,1.46,0,0,0,1.16-2.33l-1.4-1.87A1.49,1.49,0,0,0,448.6,295.33Z"/><path class="cls-11" d="M412.55,299.58a2.07,2.07,0,0,1,.2-2.19l1.41-1.86a2.09,2.09,0,0,1,1.67-.83H448.6a2.09,2.09,0,0,1,1.67.83l1.41,1.86a2.09,2.09,0,0,1-1.67,3.35H414.42A2.07,2.07,0,0,1,412.55,299.58Zm3.28-3.61a.79.79,0,0,0-.65.33l-1.41,1.86a.82.82,0,0,0,.65,1.31H450a.8.8,0,0,0,.73-.45.81.81,0,0,0-.08-.86l-1.4-1.86a.82.82,0,0,0-.66-.33Z"/><path class="cls-10" d="M442.25,324.43a7.51,7.51,0,1,1-7.51-7.51A7.51,7.51,0,0,1,442.25,324.43Z"/><path class="cls-11" d="M424.42,324.43a10.32,10.32,0,1,1,10.32,10.31A10.33,10.33,0,0,1,424.42,324.43Zm1.28,0a9,9,0,1,0,9-9.05A9,9,0,0,0,425.7,324.43Z"/><path class="cls-11" d="M569.39,141l-78.84,8.18c-10.57,1.06-20.14-7.14-21.32-18.28l-9.52-90a20.82,20.82,0,0,1,4.45-15.24,18.61,18.61,0,0,1,12.6-6.89L612.54,4.93h0c10.57-1.06,20.14,7.14,21.31,18.28l9.53,90a20.82,20.82,0,0,1-4.45,15.24,18.62,18.62,0,0,1-12.51,6.88h-.1l-10.76,1L620.84,166Zm56.78-7.22a17,17,0,0,0,11.51-6.29,19.24,19.24,0,0,0,4.1-14.06l-9.53-90c-1.08-10.26-9.86-17.82-19.55-16.85h0L476.92,20.32h-.09a17,17,0,0,0-11.42,6.29,19.19,19.19,0,0,0-4.1,14.06l9.52,90c1.09,10.26,9.86,17.82,19.56,16.85l79.29-8.23,49,23.86-5-28.27Z"/><path class="cls-10" d="M605,11.9,469.2,25.69c-10.11,1-17.45,10.58-16.33,21.25l9.53,90c1.13,10.67,10.32,18.57,20.43,17.56l79.06-8.2,50.24,24.45-5.16-29,11.64-1.08c10.11-1,17.46-10.57,16.33-21.24l-9.52-90C624.29,18.79,615.09,10.89,605,11.9Z"/><path class="cls-11" d="M455.4,67.4l-1.6.17,7.5,70.93a19.56,19.56,0,0,0,21.49,17.38l21.37-2.26L504,152l-21.37,2.26a18,18,0,0,1-19.72-15.95Z"/><rect class="cls-11" x="580.3" y="140.39" width="1.59" height="30.55" transform="translate(186.83 610.04) rotate(-64.05)"/><path class="cls-11" d="M626.87,50.73l-3-25.61A14.43,14.43,0,0,0,608.24,12.5l-30.92,3-.15-1.58,30.92-3a16,16,0,0,1,17.37,14l3,25.61Z"/><path d="M550.13,128.29a51,51,0,1,1,51-51A51,51,0,0,1,550.13,128.29Zm0-100.87A49.91,49.91,0,1,0,600,77.33,50,50,0,0,0,550.13,27.42Z"/><path class="cls-2" d="M596.32,81.57A50.44,50.44,0,1,0,545.89,132,50.43,50.43,0,0,0,596.32,81.57Z"/><g class="cls-20"><path class="cls-21" d="M581.64,69.26a12.4,12.4,0,0,1-2,1.19,2.72,2.72,0,0,1-2-.64c-.42-.28-.82-.56-1.18-.84a3.77,3.77,0,0,1,.51.64c.5.64.61,1.58,1.08,2.26a3.36,3.36,0,0,0,1.63,1.44,2,2,0,0,0,2.9-1.31,2.81,2.81,0,0,0-.25-1.61C582.14,70,581.83,69.64,581.64,69.26Z"/><path class="cls-21" d="M597.05,75.37c-.29-.72-.9-.76-1.49-1.11-2.18-1.25-1.9-2.54-2.2-4.65-.33-2.31-1.78-3.7-3.6-5-.8-.58-2.87-1.48-3.15-2.33-.62-1.86,1.78-1.67,2.82-2.26,2-1.13,1.83-2.93,1.17-4.85-1.31-3.79-2.84-7.6-4.47-11.26a8,8,0,0,0-1.87-3.17c-1.62-1.24-3.25.05-4.61-2.37s.47-6.5-2-8.61c-2.14-1.79-5.53,1.39-7.34,2.41a.45.45,0,0,0-.22.26,11.3,11.3,0,0,1-5.29,1.75c-1.93,0-3.14-1.33-4.83-1.94a3.91,3.91,0,0,0-4.65,1.5c-.27.4-.37,1.12-.65,1.46a6,6,0,0,1-4.52,1.47,4.1,4.1,0,0,0-2.49.29,2.32,2.32,0,0,0-1.11,1.24c-.22.56,0,1.16-.06,1.72a3.74,3.74,0,0,1-2.92,3.4.52.52,0,0,0-.36.63,3.9,3.9,0,0,0,1.06,1.49c1.19,0,2.38-.06,3.59,0,.45,0,1,.4.91.91C548.56,47.91,548.1,48,547,49l-1.42.59a2.35,2.35,0,0,0-.61,2.46,3.9,3.9,0,0,0-.15,1c4.46.47,10.46-2.4,14.37.4.64.46,1,1.28,1.69,1.72,4,2.69,2.29.39,4.81.67,2.08.24,3.16.25,4.82,1.67s2.24,2.86,3.09,4.73c.52,1.15,3.28,5.65,5,6.09,2.12.53,3.81-3.89,5.68,0a.92.92,0,0,1,.06.56,6.42,6.42,0,0,0,1.62,1.76,13.67,13.67,0,0,1,2.33,1.44c1,1,.94,2.38.92,3.65-.06,2.85-.35,5.28,1.17,7.85.7,1.18,2.53,3.59,4.25,2.69a1.72,1.72,0,0,0,.72-.9c0-.26,0-.53,0-.79a2.61,2.61,0,0,1,.85-1.75,6.94,6.94,0,0,0,.39-.77,6.61,6.61,0,0,0-.08-2.43c-.08-3.3.47-1.46.59-3.17A2.52,2.52,0,0,0,597.05,75.37Z"/><path class="cls-21" d="M537.29,38.82c-.39,1.55-1.54,2.7-2.48,4-.28.38-1.34,1.54-1.26,2.07.14.89,1.64,1.14,2.21.94a6.24,6.24,0,0,0,1.72-1.4,5.79,5.79,0,0,1,.84-.88c.8-.68,2.1-1.15,2.76-2a2.56,2.56,0,0,0,.46-1.64c.08-.89-.31-2,0-2.87a15,15,0,0,1,1-1.27c.8-1.26.89-2.64-.44-3.6a3,3,0,0,0-2.8-.35,7.38,7.38,0,0,0-1.75,2.82A21.33,21.33,0,0,1,537.29,38.82Z"/><path class="cls-21" d="M526,51.85a22.31,22.31,0,0,0-3.8-1.27c-1.54-.5-6.14-1-4.69-3.4a2.24,2.24,0,0,1,.71-1.86,3.61,3.61,0,0,1,2.36-.93l.28,0a7.74,7.74,0,0,0,3.72-1.15c.42-.33.73-.81,1.12-1.18s.82-.49,1-1.08a10,10,0,0,1,.34-1.1,11.6,11.6,0,0,0,1-1.64c.16-.84,0-1.65-.77-1.64-.47.22-.93.41-1.36.62-.51.38-1,.83-1.34,1.1l-.13.07a3,3,0,0,0-.34.58c-.52,1.11-.81,2-2,2.4a3.35,3.35,0,0,1-1,1.09,2.15,2.15,0,0,1-2.24.1c-.4-.21-.52-.58-1-.7a11.53,11.53,0,0,0-1.16,0c-1.13-.09-2.74-.64-2.93-1.94a1.64,1.64,0,0,1,.18-1,11.82,11.82,0,0,1,1.67-3.28.47.47,0,0,0-.22-.7,2.06,2.06,0,0,0-1.23-2.18c-1.75-.82-3.73.69-5.06,1.63-4.18,3-6.93,6.85-9.32,11.3a62.25,62.25,0,0,1-4.38,6.86,17.35,17.35,0,0,0-3.21,6,8.35,8.35,0,0,0,.36,4.94,6.27,6.27,0,0,0,.66,1.25A26.92,26.92,0,0,0,498,67.4c1.28.52,2.61,1,3.39,2.19C503,72,501.4,75,499.68,77a10.73,10.73,0,0,0,.06,3.71,21.21,21.21,0,0,0,1.88,3c.94,1.24,2.29,2.54,2.66,4.11.42,1.8-.73,2.89-1.51,4.33-.87,1.61-.95,3,.43,4.31s1.27,3.11,2.51,4.58c.65.76,1.5,1.3,2.22,2a5.28,5.28,0,0,1,1.62,5.35c-.69,3.5-2.44,8.36,2,10.26,2.42,1,6.31-.47,6-3.53a22.51,22.51,0,0,1-.41-2.28,5.41,5.41,0,0,1,1-3.16c.68-1.07,1.58-2,2.31-3a6.29,6.29,0,0,0,1.12-6.07c-.55-1.72-1.39-3-.64-4.89a20.22,20.22,0,0,1,2.22-3.21c.88-1.37,2.55-4.29,2-6-.45-1.47-3-2.19-4.22-2.61a14.92,14.92,0,0,0-2.62-.63,16,16,0,0,1-2.89-.29c-.91-.37-1.39-1.53-1.92-2.26a17.64,17.64,0,0,0-4.12-3.92,5.85,5.85,0,0,0-2.35-1.11,12.44,12.44,0,0,1-1.36-.1c-2.9-.95-1.43-1.56-1-3.06.5-1.77-.24-2.47-1.48-3.76-1-1.07-2.1-2.11-3.15-3.18l-.34-.36c-1.19-.87-1-2,.55-3.4.73.12,1.46,1.77,1.8,2.35a5,5,0,0,0,3.09,2.58,25.58,25.58,0,0,1,3.16,1.47,2.3,2.3,0,0,0,2,0c1.78-.77,1.93-2.71,3-4.12s3.26-2.28,5-2.78c1.26-.35,2.89.08,4.06-.42a2.68,2.68,0,0,0,1.1-1.31c.92-1.55,1.8-3.15,2.66-4.73C526.89,53.58,527.47,52.63,526,51.85Z"/><path class="cls-21" d="M568.58,68.25c.16-2.25-1.67-3.85-3.53-4.71a50.57,50.57,0,0,0-8.89-3,21.9,21.9,0,0,0-3.88-.29A5.49,5.49,0,0,1,549,58.8a11.69,11.69,0,0,0-1-1,2.49,2.49,0,0,0-2.06-.45,21.08,21.08,0,0,1-2.66.67c-.85.06-1.7-.11-2.54,0a3.85,3.85,0,0,0-3.26,2c-2.08-.65-4.11.73-4.89,2.92-1.09,3.08.32,5.68,2.27,8a9.93,9.93,0,0,1,1.29,1.6,3.71,3.71,0,0,1-.12,2.63,3.18,3.18,0,0,0,.2,1.56,3,3,0,0,0,2.06,1.63c1.82.44,2.63-.82,4.08-1.35a8.09,8.09,0,0,1,.88-.25,4.55,4.55,0,0,1,2.76-.85c2.63.06,4.06,1.66,4.78,4.06a38.23,38.23,0,0,1,1.64,7.81c.14,1.9-1.41,3-2.53,4.12a4.94,4.94,0,0,1-.29,1.37,1.75,1.75,0,0,0-.17.68,1.78,1.78,0,0,0,.33,1c.49.81,1.32,1.12,1.78,2a5.19,5.19,0,0,1-.15,4.7c-.37.84-.8,1.64-.33,2.54,1.16,2.23,4.4-.32,5.5-1.4a9.8,9.8,0,0,0,2.47-4c.79-2.47.33-4.85,2.38-6.85a.53.53,0,0,0-.1-.81c-2-1.49,1-3.9,1.85-5.08a12,12,0,0,0,2-3.69,7.93,7.93,0,0,0,.25-3.49c-.28-1.61-2.1-3.49-1.44-5.09C564.9,71.41,568.39,71.18,568.58,68.25Z"/><path class="cls-21" d="M568.36,89.61a5.8,5.8,0,0,0-.52-1.62.56.56,0,0,0-.79-.43.81.81,0,0,0-.16,0,.53.53,0,0,0-.49.38,2,2,0,0,0-.1.26s0,0,0,0a3.6,3.6,0,0,0-1.29,3c.11.78.53,1,0,1.77s-1,.86-1.32,1.61c-.65,1.42-.39,4.87,1.94,4.1a2.84,2.84,0,0,0,1.75-2.1c.19-1,0-1.17.8-1.92.33-.3.7-.42.91-.85C569.63,92.66,568.66,90.72,568.36,89.61Z"/><path class="cls-21" d="M596.21,102.36a.4.4,0,0,0,0-.11c-.63-3-2.18-6.94-5.78-6.37a1.64,1.64,0,0,0-1.7-1.37c-1.78-.08-3.61,2.5-4.83,3.35-2.34,1.64-8.2,2.53-5,6.09,2.29,2.57-.58,2.73-1.38,4.81-.5,1.3.27,2.25,1.2,3,1.37,1.18,2,2.38,1.12,4.16a8.39,8.39,0,0,1-4.35,3.65c-1.52.7-2.67,1.54-2.6,3.34a.51.51,0,0,0,.51.51c5.32-.35,8.61-3.2,11.55-7.36,1.53-2.17,4-3.09,5.33-5.4,1.75-3,3.06-5.51,6.18-7.4A.52.52,0,0,0,596.21,102.36Z"/><path class="cls-21" d="M564.1,127.47c-1.55,0-3-.73-4.57-.37-.65.15-1.22.7-1.84.82-2,.37-3-.58-4.06-1.88-1.68-2.07-3.82-3.37-6.53-2.44-2.28.79-3.81,2.12-6.43,1.74a22.28,22.28,0,0,1-6.31-1.76c-1.45-.66-4.1-1.47-4,1.12,0,.46.35.83.39,1.27a6,6,0,0,1-.44,2,4.6,4.6,0,0,0-.17,1.81,7.49,7.49,0,0,0,1.87,3.53.63.63,0,0,0-.16.24c-1.38,4.37,14.68,2.52,16.79,2.19a123.33,123.33,0,0,0,12.87-2.9c1.67-.45,6.42-.75,6.81-3.06C568.78,127.26,565.55,127.46,564.1,127.47Z"/><path class="cls-11" d="M582.93,71.49a3.28,3.28,0,0,1-1-.19,3.64,3.64,0,0,1-1.75-1.55,4.73,4.73,0,0,1-.53-1.14,4.18,4.18,0,0,0-.54-1.1,3.94,3.94,0,0,0-.49-.62l.35-.4c.36.28.76.57,1.17.84a2.37,2.37,0,0,0,1.81.59,4.06,4.06,0,0,0,1.07-.6c.29-.2.6-.4.89-.56l.24-.13.12.24c.08.16.18.31.27.46a5.38,5.38,0,0,1,.39.7,3,3,0,0,1,.26,1.76,2,2,0,0,1-1,1.41A2.49,2.49,0,0,1,582.93,71.49Zm-3.08-3.69q.14.32.24.63a4.18,4.18,0,0,0,.48,1,3.13,3.13,0,0,0,1.5,1.35,2.21,2.21,0,0,0,1.79-.06,1.53,1.53,0,0,0,.76-1.06,2.52,2.52,0,0,0-.24-1.45,3.34,3.34,0,0,0-.33-.61l-.17-.26-.62.4a3.73,3.73,0,0,1-1.29.69A2.85,2.85,0,0,1,579.85,67.8Z"/><path class="cls-11" d="M596.14,84.45c-1.78,0-3.35-2.46-3.69-3-1.37-2.32-1.31-4.58-1.23-7,0-.33,0-.67,0-1,0-1.24,0-2.52-.84-3.47a4.35,4.35,0,0,0-1.31-.85,8.91,8.91,0,0,1-1-.56,6.73,6.73,0,0,1-1.67-1.82l-.06-.09v-.11a.68.68,0,0,0,0-.4c-.42-.86-.83-1.34-1.26-1.46s-1.12.28-1.75.71a3.13,3.13,0,0,1-2.49.86c-1.84-.46-4.66-5.09-5.17-6.24l-.16-.35a10.6,10.6,0,0,0-2.86-4.28,6.26,6.26,0,0,0-4.2-1.55l-.48-.06a1.56,1.56,0,0,0-1.39.33c-.64.51-1.14.56-3.53-1.05a4.27,4.27,0,0,1-.93-.92,4.56,4.56,0,0,0-.78-.8c-2.38-1.7-5.65-1.21-8.82-.74a22.63,22.63,0,0,1-5.42.4l-.25,0v-.25a4,4,0,0,1,.15-1,2.56,2.56,0,0,1,.69-2.64l.09-.06,1.38-.58.46-.38a2.31,2.31,0,0,0,1.17-2,.44.44,0,0,0-.11-.34.84.84,0,0,0-.56-.28c-.64-.05-1.3,0-1.94,0s-1.09,0-1.65,0h-.1l-.25-.26a3.45,3.45,0,0,1-.93-1.39.68.68,0,0,1,0-.57.78.78,0,0,1,.5-.41,3.45,3.45,0,0,0,2.72-3.18,2.76,2.76,0,0,0,0-.64,2.49,2.49,0,0,1,.08-1.14,2.67,2.67,0,0,1,1.23-1.38,4.31,4.31,0,0,1,2.66-.31,5.72,5.72,0,0,0,4.27-1.38,2.1,2.1,0,0,0,.3-.67,3.59,3.59,0,0,1,.34-.77,4.16,4.16,0,0,1,5-1.6,10.57,10.57,0,0,1,1.75.87,5.86,5.86,0,0,0,3,1.05A10.86,10.86,0,0,0,572.17,30a.72.72,0,0,1,.3-.3c.36-.21.81-.51,1.28-.84,1.9-1.3,4.51-3.1,6.36-1.54,1.54,1.28,1.55,3.21,1.55,5.07a7.34,7.34,0,0,0,.56,3.6,2.74,2.74,0,0,0,2.47,1.57,4,4,0,0,1,2.07.72A6.57,6.57,0,0,1,588.47,41q.12.3.24.57c1.72,3.84,3.22,7.64,4.48,11.28.59,1.73,1,3.89-1.28,5.17a5.13,5.13,0,0,1-1.2.41c-.64.16-1.3.33-1.52.73a1,1,0,0,0,0,.8c.17.51,1.28,1.14,2.09,1.61.37.21.72.42,1,.59,2,1.42,3.37,2.85,3.71,5.19q.07.54.12,1c.16,1.54.26,2.47,1.95,3.44a3.71,3.71,0,0,0,.45.22,1.82,1.82,0,0,1,1.16,1h0a2.25,2.25,0,0,1,.08,1l0,.18c-.05.75-.19.93-.37,1.1s-.26.23-.22,2a5.83,5.83,0,0,0,.1.8,3.47,3.47,0,0,1,0,1.72,2.45,2.45,0,0,1-.26.54c0,.09-.1.17-.14.26l-.06.08a2.41,2.41,0,0,0-.77,1.58l-.07.89,0,.11a1.82,1.82,0,0,1-.77.9A1.89,1.89,0,0,1,596.14,84.45Zm-9.22-17.93a6.23,6.23,0,0,0,1.49,1.61,7.94,7.94,0,0,0,.91.51,5.13,5.13,0,0,1,1.46,1,5,5,0,0,1,1,3.84c0,.35,0,.69,0,1-.08,2.41-.14,4.49,1.16,6.68.21.36,2.15,3.51,3.9,2.59a1.32,1.32,0,0,0,.55-.67l0-.06,0-.74a2.88,2.88,0,0,1,.91-1.89,2,2,0,0,1,.13-.25,2.33,2.33,0,0,0,.22-.45,2.93,2.93,0,0,0,0-1.47,8,8,0,0,1-.1-.87c0-1.93.12-2.22.39-2.46.08-.07.16-.14.2-.73l0-.2a1.64,1.64,0,0,0-.05-.74c-.17-.43-.46-.56-.87-.73-.16-.08-.33-.15-.5-.25-1.93-1.11-2.06-2.32-2.21-3.85,0-.31-.07-.64-.12-1-.31-2.16-1.63-3.49-3.5-4.84-.22-.16-.56-.35-.92-.56-1-.56-2.09-1.2-2.32-1.9a1.5,1.5,0,0,1,0-1.22c.32-.6,1.1-.8,1.85-1a4.53,4.53,0,0,0,1.06-.35c1.55-.88,1.86-2.19,1.05-4.54-1.25-3.62-2.75-7.4-4.46-11.23-.09-.19-.17-.38-.25-.58a6,6,0,0,0-1.54-2.49,3.5,3.5,0,0,0-1.82-.63,3.23,3.23,0,0,1-2.86-1.82,7.86,7.86,0,0,1-.63-3.87c0-1.82,0-3.54-1.36-4.67-1.54-1.29-4,.37-5.72,1.58-.48.33-.94.64-1.32.86a.2.2,0,0,0-.1.12l0,.09-.09.05a11.5,11.5,0,0,1-5.42,1.78,6.36,6.36,0,0,1-3.25-1.12,10,10,0,0,0-1.67-.83,3.63,3.63,0,0,0-4.34,1.4,2.74,2.74,0,0,0-.27.64,2.85,2.85,0,0,1-.4.84,6.17,6.17,0,0,1-4.75,1.56,3.88,3.88,0,0,0-2.33.26,2,2,0,0,0-1,1.11,1.88,1.88,0,0,0-.05.89,3.3,3.3,0,0,1,0,.77,4,4,0,0,1-3.11,3.61.36.36,0,0,0-.16.14.23.23,0,0,0,0,.15,3.08,3.08,0,0,0,.82,1.2l.11.11c.5,0,1,0,1.5,0a18.93,18.93,0,0,1,2,0,1.42,1.42,0,0,1,.93.47,1,1,0,0,1,.23.74A2.81,2.81,0,0,1,550,46.51l-.49.39-.06,0-1.37.57a2,2,0,0,0-.51,2.15l0,.08,0,.07a3.76,3.76,0,0,0-.13.67,23.85,23.85,0,0,0,5-.41c3.26-.49,6.64-1,9.2.83a5.29,5.29,0,0,1,.88.89,3.94,3.94,0,0,0,.81.82c2.31,1.55,2.56,1.35,2.9,1.08a2.07,2.07,0,0,1,1.79-.44l.47,0A6.78,6.78,0,0,1,573,55a10.89,10.89,0,0,1,3,4.47l.16.36c.58,1.28,3.29,5.55,4.82,5.94A2.77,2.77,0,0,0,583,65a2.78,2.78,0,0,1,2.18-.79c.6.16,1.12.73,1.61,1.75A1.21,1.21,0,0,1,586.92,66.52Z"/><path class="cls-11" d="M537.62,43.86a2.7,2.7,0,0,1-1.33-.35,1.27,1.27,0,0,1-.66-.88c-.08-.51.47-1.23,1.09-2l.22-.28c.21-.29.43-.57.65-.84a8.24,8.24,0,0,0,1.78-3h0a12,12,0,0,0,.24-2.91c0-.43,0-.86,0-1.29l0-.08a7.53,7.53,0,0,1,1.8-2.91l.1-.06a3.22,3.22,0,0,1,3.05.38c1.31.95,1.49,2.39.51,3.95a6,6,0,0,1-.49.62,3.19,3.19,0,0,0-.46.61,3.61,3.61,0,0,0-.07,1.64,5,5,0,0,1,0,1.16l0,.3a2.36,2.36,0,0,1-.49,1.48,5.72,5.72,0,0,1-1.74,1.36,9.29,9.29,0,0,0-1.06.71,5.4,5.4,0,0,0-.8.84l-.34.34a4.57,4.57,0,0,1-1.5,1.14A1.55,1.55,0,0,1,537.62,43.86Zm2.26-7.24A8.65,8.65,0,0,1,538,39.85c-.22.27-.44.54-.64.82l-.24.3c-.28.35-1,1.26-1,1.57a.74.74,0,0,0,.41.51,2.06,2.06,0,0,0,1.45.23,4.54,4.54,0,0,0,1.31-1l.32-.31a5.61,5.61,0,0,1,.85-.9,8.52,8.52,0,0,1,1.13-.75,5.4,5.4,0,0,0,1.59-1.23,1.87,1.87,0,0,0,.38-1.2l0-.31a5.46,5.46,0,0,0,0-1,4,4,0,0,1,.09-1.88,3.22,3.22,0,0,1,.56-.77,5.55,5.55,0,0,0,.44-.56,2.22,2.22,0,0,0-.37-3.24,2.65,2.65,0,0,0-2.51-.33,7.05,7.05,0,0,0-1.62,2.64c0,.4,0,.81,0,1.22a12.26,12.26,0,0,1-.26,3Z"/><path class="cls-11" d="M515.57,117a4.53,4.53,0,0,1-1.81-.35c-4.08-1.76-3.15-5.9-2.41-9.23.1-.46.2-.9.28-1.32a5.07,5.07,0,0,0-1.55-5.12c-.28-.27-.59-.52-.89-.76A10.42,10.42,0,0,1,507.85,99a7,7,0,0,1-1.16-2.24,5.39,5.39,0,0,0-1.33-2.32c-1.35-1.26-1.51-2.73-.48-4.63.18-.33.38-.65.58-1a3.92,3.92,0,0,0,.9-3.18,8.29,8.29,0,0,0-1.91-3.14c-.24-.3-.48-.59-.7-.88a20.86,20.86,0,0,1-1.9-3.05l0-.07a10.85,10.85,0,0,1-.07-3.81v-.07l.05-.06c.84-1,3.47-4.38,1.69-7.09a5.77,5.77,0,0,0-3-2l-.28-.11a27.92,27.92,0,0,1-4.84-2.68l-.08-.08a7.41,7.41,0,0,1-.68-1.29,8.75,8.75,0,0,1-.37-5.1,17.41,17.41,0,0,1,3.25-6.14,60.73,60.73,0,0,0,4.37-6.83c2.89-5.37,5.7-8.78,9.4-11.39l.2-.14c1.32-.94,3.32-2.35,5.12-1.51A2.31,2.31,0,0,1,518,32.51a.75.75,0,0,1,.27.39.7.7,0,0,1-.09.59l-.21.34a9.77,9.77,0,0,0-1.43,2.85,1.61,1.61,0,0,0-.18.94c.18,1.19,1.77,1.64,2.69,1.72a2.75,2.75,0,0,0,.47,0,2.25,2.25,0,0,1,.73,0,1.51,1.51,0,0,1,.74.45,1.44,1.44,0,0,0,.34.27,1.84,1.84,0,0,0,2-.09,2.85,2.85,0,0,0,.89-1l0-.08.09,0c1-.36,1.29-1,1.73-2l.14-.3a4.59,4.59,0,0,1,.36-.62l0,0,.06,0,.26.16-.17-.2c.13-.1.27-.23.43-.37s.59-.5.91-.74l.72-.34a6.82,6.82,0,0,0,.68-.31l.12,0h0a1,1,0,0,1,.81.35,2,2,0,0,1,.22,1.61,3.71,3.71,0,0,1-.6,1.08,4.66,4.66,0,0,0-.4.62,2.7,2.7,0,0,0-.18.57,2.42,2.42,0,0,1-.14.51,1.81,1.81,0,0,1-.73.89,2.32,2.32,0,0,0-.37.3,5.44,5.44,0,0,0-.47.49,4.43,4.43,0,0,1-.68.69,7.87,7.87,0,0,1-3.84,1.21l-.28,0a3.34,3.34,0,0,0-2.21.86,1.93,1.93,0,0,0-.63,1.63V45l0,.08a1.13,1.13,0,0,0-.18,1c.38.91,2.36,1.38,3.66,1.69.42.1.79.19,1.07.28s.73.22,1.11.32a13.72,13.72,0,0,1,2.72,1h0a1.85,1.85,0,0,1,1,1,3,3,0,0,1-.63,2.19l-.16.29c-.82,1.51-1.68,3.07-2.57,4.56l-.13.24a2.46,2.46,0,0,1-1.1,1.18,5.87,5.87,0,0,1-2.27.29,6.34,6.34,0,0,0-1.82.15c-1.83.52-3.84,1.24-4.88,2.67a9.11,9.11,0,0,0-.81,1.51,4.64,4.64,0,0,1-2.26,2.7,2.54,2.54,0,0,1-2.25,0l-.87-.45a16.62,16.62,0,0,0-2.26-1A5.21,5.21,0,0,1,504.23,62c-.07-.11-.14-.25-.22-.4a5,5,0,0,0-1.29-1.79,2.78,2.78,0,0,0-1.13,1.88,1.41,1.41,0,0,0,.66,1l.38.38,1.4,1.42c.59.58,1.17,1.17,1.75,1.77l.11.11c1.18,1.22,2,2,1.44,3.9a5.21,5.21,0,0,1-.46,1c-.21.4-.34.66-.26.85s.63.55,1.55.86a2.82,2.82,0,0,0,.69,0,3.13,3.13,0,0,1,.63,0,6.12,6.12,0,0,1,2.45,1.15,17.66,17.66,0,0,1,4.19,4c.13.18.26.4.4.62a3.55,3.55,0,0,0,1.4,1.55,5.4,5.4,0,0,0,1.7.2,9.51,9.51,0,0,1,1.13.07,16.14,16.14,0,0,1,2.66.64l.31.1c1.36.45,3.63,1.2,4.08,2.69.55,1.8-1,4.69-2.06,6.25a14.85,14.85,0,0,1-.9,1.19,7.81,7.81,0,0,0-1.3,2,4.62,4.62,0,0,0,.3,3.69c.12.33.24.66.36,1a6.58,6.58,0,0,1-1.17,6.3c-.32.46-.68.9-1,1.33a15.87,15.87,0,0,0-1.26,1.67,5.14,5.14,0,0,0-1,3,4.46,4.46,0,0,0,.19,1.22,5.5,5.5,0,0,1,.21,1,3.43,3.43,0,0,1-1.51,3.18A5.29,5.29,0,0,1,515.57,117ZM502.34,78.36a20.21,20.21,0,0,0,1.83,2.94c.22.29.45.57.69.86a8.72,8.72,0,0,1,2,3.36,4.4,4.4,0,0,1-1,3.59c-.19.3-.38.6-.55.92-.91,1.68-.79,2.91.37,4a5.83,5.83,0,0,1,1.46,2.52,6.41,6.41,0,0,0,1.08,2.09,8.76,8.76,0,0,0,1.26,1.16c.31.26.63.52.93.8a5.55,5.55,0,0,1,1.7,5.6c-.08.43-.18.87-.28,1.33-.74,3.3-1.58,7,2.1,8.63a4.71,4.71,0,0,0,4.37-.56,2.91,2.91,0,0,0,1.29-2.7,5.15,5.15,0,0,0-.19-1,5,5,0,0,1-.21-1.35,5.63,5.63,0,0,1,1.06-3.31,18.45,18.45,0,0,1,1.3-1.72c.34-.42.7-.85,1-1.29a6,6,0,0,0,1.09-5.84c-.11-.35-.23-.67-.35-1a5.17,5.17,0,0,1-.29-4.08,8,8,0,0,1,1.38-2.1,13.22,13.22,0,0,0,.86-1.15c.77-1.19,2.51-4.15,2-5.8-.38-1.23-2.49-1.93-3.75-2.34l-.31-.11a15.06,15.06,0,0,0-2.57-.61,8.18,8.18,0,0,0-1.06-.07,5.5,5.5,0,0,1-1.88-.24,3.93,3.93,0,0,1-1.67-1.77c-.13-.21-.25-.41-.37-.58a17.15,17.15,0,0,0-4.06-3.85,5.46,5.46,0,0,0-2.25-1.07,2.8,2.8,0,0,0-.53,0,3,3,0,0,1-.86-.08c-1.14-.37-1.7-.72-1.88-1.16s.06-.85.29-1.3a4.43,4.43,0,0,0,.42-.93c.44-1.57-.15-2.17-1.31-3.38l-.11-.11c-.58-.6-1.16-1.18-1.74-1.77l-1.41-1.42-.34-.35a1.84,1.84,0,0,1-.85-1.39,3.31,3.31,0,0,1,1.41-2.4l.1-.09.12,0c.68.12,1.23,1.06,1.78,2.1l.21.38a4.74,4.74,0,0,0,2.95,2.46,15.47,15.47,0,0,1,2.32,1c.27.14.55.29.87.44a2,2,0,0,0,1.8,0,4.21,4.21,0,0,0,2-2.44,8.85,8.85,0,0,1,.86-1.6c1.14-1.56,3.25-2.33,5.17-2.87a7.06,7.06,0,0,1,2-.17,5.54,5.54,0,0,0,2.06-.24,2,2,0,0,0,.84-1l.14-.25c.89-1.49,1.74-3,2.57-4.55l.16-.29c.39-.7.72-1.32.59-1.78a1.35,1.35,0,0,0-.76-.73h0a12.78,12.78,0,0,0-2.61-.92l-1.14-.33c-.26-.09-.62-.17-1-.27-1.5-.36-3.55-.85-4-2a1.59,1.59,0,0,1,.17-1.43,2.46,2.46,0,0,1,.8-2,3.79,3.79,0,0,1,2.53-1l.26,0a7.6,7.6,0,0,0,3.59-1.09,5.92,5.92,0,0,0,.6-.62,6.6,6.6,0,0,1,.51-.54,3.87,3.87,0,0,1,.41-.34,1.29,1.29,0,0,0,.56-.65c0-.15.08-.29.12-.44a2.89,2.89,0,0,1,.22-.69,6.77,6.77,0,0,1,.44-.69,3.16,3.16,0,0,0,.52-.91,1.55,1.55,0,0,0-.11-1.13.46.46,0,0,0-.35-.16l-.64.29-.66.3c-.27.21-.58.47-.84.69l-.45.38-.13.08a3,3,0,0,0-.27.47l-.14.3a3.47,3.47,0,0,1-1.94,2.21,3.48,3.48,0,0,1-1,1.09,2.41,2.41,0,0,1-2.51.12,2,2,0,0,1-.47-.36,1,1,0,0,0-.49-.31,1.75,1.75,0,0,0-.55,0,2.86,2.86,0,0,1-.58,0c-1.33-.11-3-.74-3.16-2.16a2,2,0,0,1,.2-1.19,10.46,10.46,0,0,1,1.48-3l.21-.33a.16.16,0,0,0,0-.16.26.26,0,0,0-.15-.16l-.16-.08,0-.18a1.81,1.81,0,0,0-1.09-1.92c-1.51-.72-3.29.54-4.59,1.46l-.2.15c-3.62,2.56-6.39,5.91-9.23,11.2A60.42,60.42,0,0,1,498,50.41a17,17,0,0,0-3.16,5.94,8.15,8.15,0,0,0,.35,4.8,6.77,6.77,0,0,0,.6,1.15,27.42,27.42,0,0,0,4.7,2.6l.27.11A6.25,6.25,0,0,1,504,67.18c1.94,3-.74,6.55-1.69,7.67A10.36,10.36,0,0,0,502.34,78.36Z"/><path class="cls-11" d="M554.82,103a1.66,1.66,0,0,1-.32,0,1.74,1.74,0,0,1-1.32-1,2.74,2.74,0,0,1,.23-2.57l.08-.2a5,5,0,0,0,.17-4.47,3.77,3.77,0,0,0-.9-1.07,3.91,3.91,0,0,1-.87-1,1.7,1.7,0,0,1-.34-.86l0-.19a2.36,2.36,0,0,1,.2-.85,4.16,4.16,0,0,0,.26-1.27v-.09l.07-.07c.2-.22.42-.42.64-.64,1-.95,1.92-1.85,1.82-3.28a37.42,37.42,0,0,0-1.63-7.75c-.77-2.56-2.25-3.83-4.53-3.88a4.32,4.32,0,0,0-2.61.8l-.09.05a5.12,5.12,0,0,0-.85.24,7.15,7.15,0,0,0-1.23.64,3.58,3.58,0,0,1-3,.72,3.28,3.28,0,0,1-2.24-1.78,2.16,2.16,0,0,1-.22-1.16c0-.14,0-.3,0-.5v-.06l0-.06a3.55,3.55,0,0,0,.12-2.41A9.51,9.51,0,0,0,537,68.79c-1.61-1.86-3.58-4.72-2.34-8.23.83-2.34,3-3.66,5-3.15a4.2,4.2,0,0,1,3.37-1.94,7.5,7.5,0,0,1,1.42,0,8.55,8.55,0,0,0,1.13,0,5.33,5.33,0,0,0,1.5-.35,8,8,0,0,1,1.13-.31,2.72,2.72,0,0,1,2.26.49,3,3,0,0,1,.62.62,3,3,0,0,0,.38.41,5.11,5.11,0,0,0,3.15,1.38c.44,0,.87,0,1.29,0a10.94,10.94,0,0,1,2.63.25,51.72,51.72,0,0,1,8.94,3c1.17.55,3.88,2.12,3.69,5-.12,1.78-1.35,2.62-2.54,3.44a5.22,5.22,0,0,0-2.13,2.14c-.37.89.16,2,.68,3a7.74,7.74,0,0,1,.77,2,8,8,0,0,1-.26,3.62,11.84,11.84,0,0,1-2,3.76c-.18.24-.42.51-.71.83-.78.87-1.85,2.06-1.76,3a1.29,1.29,0,0,0,.56.89.85.85,0,0,1,.35.63.71.71,0,0,1-.22.58,6.88,6.88,0,0,0-1.81,4.34,15.87,15.87,0,0,1-.51,2.4,10,10,0,0,1-2.53,4.08C558.17,101.57,556.29,103,554.82,103ZM552.5,89.68a5.22,5.22,0,0,1-.3,1.33,2,2,0,0,0-.16.62l0,.15a1.34,1.34,0,0,0,.27.66,3.9,3.9,0,0,0,.77.85,4,4,0,0,1,1,1.22,5.47,5.47,0,0,1-.15,4.92l-.09.2a2.32,2.32,0,0,0-.24,2.12,1.24,1.24,0,0,0,.93.72c1.3.21,3.28-1.34,4.15-2.19a9.55,9.55,0,0,0,2.4-3.86,16.69,16.69,0,0,0,.49-2.33c.26-1.66.5-3.22,2-4.63a.21.21,0,0,0,.07-.16.42.42,0,0,0-.15-.25,1.75,1.75,0,0,1-.76-1.26c-.12-1.17,1-2.41,1.89-3.4.27-.31.51-.58.67-.79a11.47,11.47,0,0,0,1.9-3.6,7.63,7.63,0,0,0,.25-3.38,6.93,6.93,0,0,0-.73-1.81c-.57-1.14-1.15-2.31-.69-3.43A5.7,5.7,0,0,1,568.35,69c1.13-.78,2.21-1.52,2.31-3h0c.17-2.53-2.31-4-3.38-4.45a51.59,51.59,0,0,0-8.84-3,10.75,10.75,0,0,0-2.52-.23c-.43,0-.87,0-1.32,0a5.65,5.65,0,0,1-3.47-1.51,3.8,3.8,0,0,1-.43-.47,2.52,2.52,0,0,0-.51-.52,2.18,2.18,0,0,0-1.86-.41,8.2,8.2,0,0,0-1.06.29,5.92,5.92,0,0,1-1.63.38,9.58,9.58,0,0,1-1.2,0,7.38,7.38,0,0,0-1.33,0,3.75,3.75,0,0,0-3.05,1.84l-.09.22-.23-.07c-1.84-.58-3.8.61-4.56,2.75-.88,2.51-.2,4.89,2.23,7.7a9.82,9.82,0,0,1,1.3,1.62l0,.07a4,4,0,0,1-.1,2.75c0,.19,0,.35,0,.49a1.73,1.73,0,0,0,.17.92,2.73,2.73,0,0,0,1.88,1.48,3,3,0,0,0,2.6-.65,7.24,7.24,0,0,1,1.33-.69,5.38,5.38,0,0,1,.87-.25,4.69,4.69,0,0,1,2.87-.87c2.51.06,4.2,1.49,5,4.25A38,38,0,0,1,555,85.42c.12,1.68-1,2.76-2,3.71C552.87,89.31,552.68,89.49,552.5,89.68Z"/><path class="cls-11" d="M567.33,96.79a1.55,1.55,0,0,1-1.19-.54c-.9-1-.81-3.07-.36-4.06a3.25,3.25,0,0,1,.8-1,3.91,3.91,0,0,0,.54-.6.82.82,0,0,0,.12-1,3.83,3.83,0,0,1-.16-.63,3.76,3.76,0,0,1,1.32-3.16l.09-.24a.82.82,0,0,1,.72-.55h.14a.8.8,0,0,1,.69.06.78.78,0,0,1,.39.54,4.21,4.21,0,0,1,.43,1.25l.09.4h0c.07.25.18.55.29.88.4,1.12.89,2.52.42,3.49a1.68,1.68,0,0,1-.67.7,3,3,0,0,0-.3.23,1.43,1.43,0,0,0-.63,1.15c0,.18,0,.38-.09.63a3.08,3.08,0,0,1-1.93,2.3A2.24,2.24,0,0,1,567.33,96.79ZM568.9,86l0,.11,0,0a2.78,2.78,0,0,0-1.08,3.29,1.31,1.31,0,0,1-.18,1.42,5.2,5.2,0,0,1-.61.68,2.76,2.76,0,0,0-.69.88,3.91,3.91,0,0,0,.27,3.49,1.17,1.17,0,0,0,1.34.26,2.59,2.59,0,0,0,1.58-1.91c0-.23.07-.42.09-.58a1.89,1.89,0,0,1,.8-1.48,2.19,2.19,0,0,1,.35-.27,1.31,1.31,0,0,0,.49-.5c.37-.77-.08-2.06-.44-3.09-.12-.34-.23-.65-.3-.92s-.07-.27-.1-.41a3.58,3.58,0,0,0-.38-1.13l0-.06v-.07a.26.26,0,0,0-.14-.19.28.28,0,0,0-.26,0l-.06,0h-.15c-.19,0-.26.07-.31.21Z"/><path class="cls-11" d="M575.67,121.48a.7.7,0,0,1-.47-.19.84.84,0,0,1-.28-.58c-.07-2,1.29-2.91,2.76-3.59a8.25,8.25,0,0,0,4.23-3.53c.86-1.69.2-2.76-1.06-3.84-.9-.77-1.86-1.85-1.28-3.34a4.8,4.8,0,0,1,1.35-1.76c.88-.81,1.41-1.31.08-2.79a2.83,2.83,0,0,1-.94-2.43c.29-1.34,2.06-2.13,3.77-2.89a15.2,15.2,0,0,0,2.26-1.16,11.8,11.8,0,0,0,1.22-1.09c1.13-1.11,2.4-2.37,3.77-2.31a1.94,1.94,0,0,1,1.9,1.34c3.77-.41,5.26,3.91,5.82,6.58a.86.86,0,0,1,.45.58.73.73,0,0,1-.36.8c-2.87,1.74-4.15,4-5.77,6.77l-.31.53a11,11,0,0,1-2.85,3,12.18,12.18,0,0,0-2.49,2.43c-2.46,3.47-5.77,7.08-11.75,7.48Zm15.32-29c-1.1,0-2.33,1.19-3.31,2.16a12.21,12.21,0,0,1-1.29,1.15,14.92,14.92,0,0,1-2.34,1.2c-1.59.71-3.24,1.44-3.47,2.52a2.38,2.38,0,0,0,.82,2c1.67,1.87.76,2.71-.12,3.53a4.31,4.31,0,0,0-1.22,1.56c-.45,1.17.28,2,1.14,2.75,1.19,1,2.27,2.36,1.18,4.48a8.8,8.8,0,0,1-4.47,3.77c-1.56.72-2.52,1.48-2.46,3.09a.32.32,0,0,0,.1.21.24.24,0,0,0,.13,0c4.58-.31,8-2.48,11.35-7.26a13.22,13.22,0,0,1,2.59-2.54,10.36,10.36,0,0,0,2.73-2.83l.31-.54c1.59-2.76,3-5.14,6-7a.22.22,0,0,0,.11-.24.29.29,0,0,0-.21-.23l-.24,0v-.28c-.53-2.55-1.94-6.74-5.47-6.17l-.26,0,0-.26a1.37,1.37,0,0,0-1.45-1.15Z"/><path class="cls-11" d="M541.77,134.38c-3.3,0-6.45-.35-7.5-1.57a1.58,1.58,0,0,1-.3-1.62A.77.77,0,0,1,534,131a7.62,7.62,0,0,1-1.8-3.5,4.85,4.85,0,0,1,.18-1.9c.05-.21.12-.41.19-.62a3.28,3.28,0,0,0,.25-1.28,1.86,1.86,0,0,0-.17-.52,2.18,2.18,0,0,1-.23-.76,1.86,1.86,0,0,1,.69-1.77c1-.67,2.72,0,3.66.4a22.2,22.2,0,0,0,6.24,1.74,7.37,7.37,0,0,0,4.46-1c.58-.26,1.17-.53,1.84-.76,2.48-.86,4.78,0,6.82,2.52,1.15,1.41,2.09,2.11,3.81,1.79a2.75,2.75,0,0,0,.85-.38,3.59,3.59,0,0,1,1-.44,6.54,6.54,0,0,1,2.79.13,8.28,8.28,0,0,0,1.83.24h.26c1.14,0,3,0,3.89.93a1.93,1.93,0,0,1,.37,1.67c-.34,2-3.57,2.62-5.7,3-.52.1-1,.18-1.3.27a122.85,122.85,0,0,1-12.9,2.91A78.66,78.66,0,0,1,541.77,134.38Zm-7.52-13.46a1.47,1.47,0,0,0-.81.2,1.39,1.39,0,0,0-.45,1.31,1.7,1.7,0,0,0,.18.57,2.17,2.17,0,0,1,.22.68,3.71,3.71,0,0,1-.28,1.5c-.06.19-.12.38-.17.57a4.38,4.38,0,0,0-.17,1.71,7.12,7.12,0,0,0,1.82,3.4l.16.21-.19.16a.18.18,0,0,0-.08.12,1.09,1.09,0,0,0,.19,1.12c2.05,2.38,14,1.08,16.3.73a124.87,124.87,0,0,0,12.84-2.9c.35-.1.81-.18,1.35-.28,2-.36,5-.91,5.27-2.57a1.41,1.41,0,0,0-.25-1.23c-.68-.79-2.43-.77-3.48-.75h-.26a9.45,9.45,0,0,1-1.94-.25,6.25,6.25,0,0,0-2.57-.14,3.7,3.7,0,0,0-.84.39,3.48,3.48,0,0,1-1,.44c-2.18.41-3.33-.75-4.32-2-1.89-2.34-4-3.13-6.24-2.35-.64.22-1.22.49-1.79.75a7.89,7.89,0,0,1-4.76,1,22.53,22.53,0,0,1-6.38-1.78A6,6,0,0,0,534.25,120.92Z"/></g></g></g></svg>