<svg id="레이어_1" data-name="레이어 1" xmlns="http://www.w3.org/2000/svg" viewBox="0 0 127.96 140.12"><defs><style>.cls-1{fill:none;}.cls-2{fill:#00418c;}.cls-3{fill:#6d6d6d;}</style></defs><circle class="cls-1" cx="106.38" cy="71.04" r="3.05"/><circle class="cls-1" cx="78.93" cy="33.42" r="3.05"/><circle class="cls-1" cx="56.56" cy="33.42" r="3.05"/><circle class="cls-1" cx="84.01" cy="71.04" r="3.05"/><path class="cls-2" d="M950,355a9.16,9.16,0,1,0,6.1,0v-16.8c0-.06,0-.11,0-.16a48.52,48.52,0,0,0-6.09,2.08Zm3,11.67a3.05,3.05,0,1,1,3-3.05A3.06,3.06,0,0,1,953,366.66Z" transform="translate(-896.46 -330.19)"/><path class="cls-2" d="M972.33,336.66V355a9.15,9.15,0,1,0,6.1,0V337.2a48.41,48.41,0,0,0-6.07-.79A2.42,2.42,0,0,0,972.33,336.66Zm3,30a3.05,3.05,0,1,1,3-3.05A3.06,3.06,0,0,1,975.38,366.66Z" transform="translate(-896.46 -330.19)"/><path class="cls-2" d="M1005.89,425.39V409.85a9.16,9.16,0,1,0-6.11,0v16.8a3.07,3.07,0,0,0,.9,2.16l7.37,7.37.05,0a50.44,50.44,0,0,0,3.47-5.15Zm-3.06-27.21a3.05,3.05,0,1,1-3.05,3.05A3.06,3.06,0,0,1,1002.83,398.18Z" transform="translate(-896.46 -330.19)"/><path class="cls-2" d="M1002.12,444l-18.6-18.6V409.85a9.15,9.15,0,1,0-6.1,0v16.8a3.06,3.06,0,0,0,.89,2.16l21.86,21.86a3,3,0,0,0,1.94.87V444Zm-21.65-45.81a3.05,3.05,0,1,1-3.05,3.05A3.06,3.06,0,0,1,980.47,398.18Z" transform="translate(-896.46 -330.19)"/><path class="cls-3" d="M969,330.19A55.46,55.46,0,0,0,913.6,385.6v9.94L897,418.4a3,3,0,0,0,2.47,4.84H913.6v10.83a27.54,27.54,0,0,0,27.51,27.51h2.41v5.68a3,3,0,1,0,6.1,0v-8.73a3.06,3.06,0,0,0-3-3h-5.46a21.44,21.44,0,0,1-21.41-21.41V420.19a3.06,3.06,0,0,0-3.05-3.05H905.48l13.64-18.82a3.11,3.11,0,0,0,.58-1.79V385.6A49.39,49.39,0,0,1,950,340.11a48.52,48.52,0,0,1,6.09-2.08,49,49,0,0,1,13-1.74c1.13,0,2.24,0,3.35.12a48.41,48.41,0,0,1,6.07.79,49.39,49.39,0,0,1,39.89,48.4v20.57a48.8,48.8,0,0,1-6.75,24.9,50.44,50.44,0,0,1-3.47,5.15,51.93,51.93,0,0,1-5,5.58,3,3,0,0,0-.94,2.19v23.27a3,3,0,0,0,6.1,0v-22a54.83,54.83,0,0,0,16.21-39.12V385.6A55.47,55.47,0,0,0,969,330.19Z" transform="translate(-896.46 -330.19)"/></svg>